<?xml version="1.0" standalone="no"?><!DOCTYPE svg PUBLIC "-//W3C//DTD SVG 1.1//EN" "http://www.w3.org/Graphics/SVG/1.1/DTD/svg11.dtd"><svg t="1623052283729" class="icon" viewBox="0 0 1024 1024" version="1.1" xmlns="http://www.w3.org/2000/svg" p-id="21301" xmlns:xlink="http://www.w3.org/1999/xlink" width="128" height="128"><defs><style type="text/css"></style></defs><path d="M512 42.688a467.2 467.2 0 1 0 332.8 136.832A469.312 469.312 0 0 0 512 42.688zM512 896a384 384 0 1 1 384-384 384 384 0 0 1-384 384z" p-id="21302"></path><path d="M725.312 469.312H554.688V298.688a42.688 42.688 0 1 0-85.312 0v170.688H298.688a42.688 42.688 0 1 0 0 85.312h170.688v170.688a42.688 42.688 0 0 0 85.312 0V554.688h170.688a42.688 42.688 0 0 0 0-85.312z" p-id="21303"></path></svg>