<svg t="1622627251136" class="icon" viewBox="0 0 1024 1024" version="1.1" xmlns="http://www.w3.org/2000/svg" p-id="1437" width="200" height="200"><path d="M829.62963 985.694815H193.232593c-85.902222 0-155.875556-69.973333-155.875556-155.875556V231.348148c0-85.902222 69.973333-155.875556 155.875556-155.875555h318.198518c20.859259 0 37.925926 17.066667 37.925926 37.925926s-17.066667 37.925926-37.925926 37.925925H193.232593a80.023704 80.023704 0 0 0-80.023704 80.023704v598.471111a80.023704 80.023704 0 0 0 80.023704 80.023704h636.397037a80.023704 80.023704 0 0 0 80.023703-80.023704v-384.948148c0-20.859259 17.066667-37.925926 37.925926-37.925926s37.925926 17.066667 37.925926 37.925926v385.137778c0 85.902222-69.783704 155.685926-155.875555 155.685926z" p-id="1438"></path><path d="M802.702222 133.878519l89.505185 96.711111-385.327407 356.693333h-97.09037l7.585185-96.711111L802.702222 133.878519m0.758519-81.161482c-15.36 0-30.72 5.499259-42.666667 16.687407L344.177778 455.300741l-16.118519 208.213333 208.782222-0.18963 416.616297-385.896296a63.108741 63.108741 0 0 0 3.413333-88.936296l-107.33037-115.674074c-12.325926-13.274074-29.202963-20.100741-46.08-20.100741z" p-id="1439"></path><path d="M814.648889 662.376296h-132.740741c-10.42963 0-18.962963-8.533333-18.962963-18.962963s8.533333-18.962963 18.962963-18.962963h132.740741c10.42963 0 18.962963 8.533333 18.962963 18.962963s-8.533333 18.962963-18.962963 18.962963zM814.838519 797.202963h-606.814815c-10.42963 0-18.962963-8.533333-18.962963-18.962963s8.533333-18.962963 18.962963-18.962963h606.814815c10.42963 0 18.962963 8.533333 18.962962 18.962963s-8.533333 18.962963-18.962962 18.962963z" p-id="1440"></path></svg>