<?xml version="1.0" standalone="no"?><!DOCTYPE svg PUBLIC "-//W3C//DTD SVG 1.1//EN" "http://www.w3.org/Graphics/SVG/1.1/DTD/svg11.dtd"><svg t="1627436670814" class="icon" viewBox="0 0 1024 1024" version="1.1" xmlns="http://www.w3.org/2000/svg" p-id="8126" xmlns:xlink="http://www.w3.org/1999/xlink" width="200" height="200"><defs><style type="text/css">@font-face { font-family: feedback-iconfont; src: url("//at.alicdn.com/t/font_1031158_1uhr8ri0pk5.eot?#iefix") format("embedded-opentype"), url("//at.alicdn.com/t/font_1031158_1uhr8ri0pk5.woff2") format("woff2"), url("//at.alicdn.com/t/font_1031158_1uhr8ri0pk5.woff") format("woff"), url("//at.alicdn.com/t/font_1031158_1uhr8ri0pk5.ttf") format("truetype"), url("//at.alicdn.com/t/font_1031158_1uhr8ri0pk5.svg#iconfont") format("svg"); }
</style></defs><path d="M698.71 301.02c-60.96-46.64-122.59-69.073-186.71-69.073S386.25 254.38 325.29 301.02c-60.699 46.44-120.173 116.59-177.696 210.747 57.534 94.323 117.022 164.595 177.732 211.115 60.956 46.707 122.573 69.17 186.674 69.17 64.1 0 125.718-22.463 186.674-69.17 60.71-46.52 120.198-116.792 177.732-211.115-57.523-94.157-116.997-164.307-177.696-210.747zM512 864c-161.102 0-307.306-112.03-438.613-336.088a31.959 31.959 0 0 1 0.01-32.338C204.702 271.858 350.903 160 512 160c161.097 0 307.298 111.858 438.603 335.574a31.959 31.959 0 0 1 0.01 32.338C819.306 751.971 673.102 864 512 864z m0-128c-123.712 0-224-100.288-224-224s100.288-224 224-224 224 100.288 224 224-100.288 224-224 224z" fill="#13227a" p-id="8127"></path><path d="M432 432m-64 0a64 64 0 1 0 128 0 64 64 0 1 0-128 0Z" fill="#13227a" p-id="8128"></path></svg>