<svg t="1623310253780" class="icon" viewBox="0 0 1024 1024" version="1.1" xmlns="http://www.w3.org/2000/svg" p-id="6215" width="200" height="200"><path d="M928 544c-17.6-3.2-33.6 9.6-36.8 27.2C862.4 756.8 699.2 896 512 896S161.6 756.8 132.8 571.2c0-4.8-1.6-8-4.8-12.8V544c0-17.6-14.4-32-32-32s-32 14.4-32 32v256c0 17.6 14.4 32 32 32s32-14.4 32-32v-56C206.4 875.2 348.8 960 512 960c219.2 0 409.6-163.2 443.2-379.2 1.6-17.6-9.6-33.6-27.2-36.8z" p-id="6216"></path><path d="M288 592c-17.6 0-32 14.4-32 32s14.4 32 32 32h192v96c0 17.6 14.4 32 32 32s32-14.4 32-32v-96h192c17.6 0 32-14.4 32-32s-14.4-32-32-32H544v-64h128c17.6 0 32-14.4 32-32s-14.4-32-32-32h-128v-32-3.2l3.2-3.2 136-136c12.8-12.8 12.8-33.6 0-44.8s-33.6-12.8-44.8 0L512 371.2l-124.8-124.8c-12.8-12.8-33.6-12.8-44.8 0s-12.8 33.6 0 44.8l136 136 3.2 3.2v35.2h-128c-17.6 0-32 14.4-32 32s14.4 32 32 32h128v64H288z" p-id="6217"></path><path d="M928 192c-17.6 0-32 14.4-32 32v57.6C816 150.4 672 64 512 64 289.6 64 102.4 224 68.8 443.2c-1.6 17.6 9.6 33.6 27.2 36.8h4.8c16 0 28.8-11.2 32-27.2C161.6 267.2 324.8 128 512 128s350.4 139.2 379.2 324.8c0 4.8 1.6 8 4.8 12.8v14.4c0 17.6 14.4 32 32 32s32-14.4 32-32V224c0-17.6-14.4-32-32-32z" p-id="6218"></path></svg>