<?xml version="1.0" standalone="no"?><!DOCTYPE svg PUBLIC "-//W3C//DTD SVG 1.1//EN" "http://www.w3.org/Graphics/SVG/1.1/DTD/svg11.dtd"><svg t="1624520236451" class="icon" viewBox="0 0 1024 1024" version="1.1" xmlns="http://www.w3.org/2000/svg" p-id="33259" xmlns:xlink="http://www.w3.org/1999/xlink" width="200" height="200"><defs><style type="text/css"></style></defs><path d="M926.336 517.20704c-16.66048 0-30.14144 13.45024-30.14144 30.04928v284.0064c0 36.44928-29.77792 66.10432-66.3552 66.10432H193.49504c-36.5824 0-66.35008-29.65504-66.35008-66.10432V234.88c0-36.44928 29.76768-66.0992 66.35008-66.0992h207.4112c16.66048 0 30.16192-13.45536 30.16192-30.04416 0-16.57856-13.50144-30.0288-30.16192-30.0288h-207.4112c-69.8368 0-126.65856 56.6016-126.65856 126.17728v596.3776c0 69.5808 56.82176 126.1824 126.65856 126.1824h636.34944c69.84704 0 126.65344-56.6016 126.65344-126.1824v-284.0064c-0.00512-16.59904-13.49632-30.04928-30.16192-30.04928zM293.51936 693.25312c-2.9952 16.31232 7.85408 31.95904 24.22784 34.95424 1.83296 0.33792 3.65568 0.50176 5.46304 0.50176 14.27968 0 26.9824-10.14784 29.62432-24.64256 0.23552-1.27488 24.16128-127.61088 107.43808-253.21472 48.45056-73.10336 107.17696-131.23584 174.52032-172.77952 64.30208-39.6544 136.95488-64.33792 216.74496-73.7536l-98.17088 100.91008a29.95712 29.95712 0 0 0 0.6656 42.47552 30.08512 30.08512 0 0 0 20.98688 8.4736 30.18752 30.18752 0 0 0 21.64736-9.13408l151.99232-156.22656c0.11776-0.10752 0.22016-0.24064 0.32768-0.34816 0.15872-0.1536 0.30208-0.32768 0.4608-0.50176 0.16896-0.16896 0.32768-0.3584 0.50688-0.55296a8.59136 8.59136 0 0 0 0.50176-0.62464c0.15872-0.18944 0.3328-0.39424 0.47616-0.59904 0.15872-0.18432 0.29184-0.37376 0.44544-0.5632 0.15872-0.23552 0.31744-0.45568 0.49664-0.69632 0.1024-0.1536 0.19456-0.31232 0.31744-0.47104l0.29696-0.47104a1.16224 1.16224 0 0 0 0.18432-0.29696c0.1024-0.1536 0.19456-0.31744 0.29184-0.45568 0.1536-0.28672 0.31744-0.53248 0.47104-0.80384l0.23552-0.45568 0.1024-0.17408 0.3328-0.66048c0.08704-0.16896 0.16384-0.3584 0.24576-0.54784 0.12288-0.25088 0.25088-0.4864 0.34304-0.74752 0.1024-0.2048 0.1792-0.41472 0.26112-0.61952 0.10752-0.25088 0.19968-0.47104 0.2816-0.70656 0.1024-0.23552 0.18944-0.47104 0.27136-0.70656 0.0768-0.22528 0.13312-0.44032 0.19968-0.65024 0.09728-0.26624 0.17408-0.52224 0.256-0.78336 0.06144-0.2048 0.11264-0.4096 0.15872-0.6144 0.09728-0.26624 0.1536-0.54784 0.22016-0.81408 0.03072-0.17408 0.08192-0.3328 0.128-0.50176 0-0.0512 0-0.1024 0.03072-0.14336l0.1536-0.78336c0.01536-0.14336 0.05632-0.30208 0.0768-0.45568l0.06144-0.35328c0.01536-0.19456 0.05632-0.39936 0.09216-0.60928l0.06656-0.4096 0.06144-0.57856c0.01536-0.12288 0.03072-0.23552 0.03072-0.33792 0.01024-0.1024 0.03072-0.19456 0.03072-0.3072 0-0.06144 0.02048-0.128 0.03584-0.17408 0-0.26624 0.0256-0.51712 0.0256-0.78336 0-0.04608 0-0.08192 0.02048-0.12288 0-0.15872 0.02048-0.31744 0.02048-0.47104v-0.01536c0.01536-0.3328 0.01536-0.64512 0.01536-0.96256v-0.03584c0-0.50688-0.01536-0.98816-0.03584-1.47456-0.02048-0.0512-0.02048-0.08192-0.02048-0.12288V168.01792c-0.0256-0.35328-0.06144-0.68608-0.09216-1.02912a2.16064 2.16064 0 0 1-0.03072-0.30208c0-0.06656 0-0.10752-0.02048-0.15872l-0.11776-0.93184-0.05632-0.40448a0.8448 0.8448 0 0 1-0.02048-0.15872 10.94144 10.94144 0 0 1-0.13824-0.78336c-0.05632-0.17408-0.08192-0.34816-0.11776-0.512 0-0.0256 0-0.05632-0.01536-0.0768l-0.0256-0.1536c-0.05632-0.18944-0.08192-0.39424-0.14848-0.57856-0.06144-0.32256-0.15872-0.62976-0.24064-0.9472-0.02048-0.12288-0.06144-0.23552-0.1024-0.3584a22.21568 22.21568 0 0 0-0.33792-1.09056l-0.06144-0.21504c-0.0768-0.256-0.17408-0.512-0.26624-0.77312 0-0.01536-0.04096-0.0512-0.04096-0.08192-0.0256-0.10752-0.09216-0.21504-0.11776-0.32256a0.68608 0.68608 0 0 0-0.06144-0.12288c-0.1024-0.27136-0.19456-0.5376-0.32256-0.80384l-0.19456-0.44032c0-0.02048-0.01536-0.03072-0.01536-0.03072-0.12288-0.26624-0.23552-0.54784-0.35328-0.8192 0 0-0.02048 0-0.02048-0.01536a24.7296 24.7296 0 0 0-0.9216-1.73056c-0.2304-0.4096-0.46592-0.79872-0.70656-1.21344-0.03584-0.0256-0.07168-0.0768-0.1024-0.10752-0.128-0.23552-0.29184-0.4608-0.44544-0.67584l-0.0256-0.0512c-0.06144-0.10752-0.12288-0.22016-0.21504-0.3328-0.08192-0.10752-0.15872-0.23552-0.256-0.35328-0.0768-0.08192-0.13312-0.17408-0.19456-0.256a1.60768 1.60768 0 0 0-0.18944-0.25088l-0.18944-0.27136a12.7488 12.7488 0 0 0-0.4864-0.6144c-0.08192-0.09216-0.1792-0.19968-0.256-0.29696l-0.14336-0.18944a25.76384 25.76384 0 0 0-0.62464-0.70656c-0.0512-0.07168-0.1024-0.128-0.15872-0.19456-0.29184-0.31744-0.60416-0.60928-0.89088-0.92672l-0.09728-0.08192c-0.31232-0.31232-0.64512-0.64512-0.97792-0.94208-0.0256-0.01536-0.0256-0.01536-0.04096-0.03584-0.35328-0.31744-0.67584-0.60928-1.06496-0.896 0-0.02048-0.0256-0.0512-0.04096-0.06144-0.33792-0.27136-0.68608-0.55296-1.04448-0.80384-0.04096-0.03072-0.08192-0.0768-0.13824-0.10752a24.9856 24.9856 0 0 0-0.96256-0.67584 2.97984 2.97984 0 0 0-0.2816-0.2048c-0.16896-0.10752-0.32256-0.22016-0.4864-0.31744-0.13312-0.09728-0.26112-0.1536-0.38912-0.256a2.28352 2.28352 0 0 1-0.44032-0.26624l-0.40448-0.23552c-0.14336-0.08192-0.28672-0.14336-0.4352-0.23552-0.16384-0.09728-0.34304-0.18432-0.52224-0.27136a27.01824 27.01824 0 0 0-0.74752-0.39424c-0.19456-0.10752-0.39936-0.18432-0.60416-0.2816a11.4432 11.4432 0 0 0-0.71168-0.31744c-0.22016-0.10752-0.4608-0.18944-0.67584-0.2816a7.58272 7.58272 0 0 0-0.6656-0.27648c-0.256-0.08704-0.49152-0.16384-0.75776-0.26624-0.18944-0.0768-0.39936-0.13824-0.59904-0.2048-0.12288-0.0512-0.25088-0.08192-0.39424-0.12288l-221.34784-73.09824c-15.81056-5.23776-32.896 3.30752-38.11328 19.05152-5.25312 15.744 3.32288 32.74752 19.10784 37.97504l89.05728 29.39904c-65.4592 14.09536-126.17216 38.30272-181.5552 72.45312-74.83904 46.17728-139.80672 110.34112-193.1264 190.74048-90.00448 135.74144-115.39968 269.88544-116.43392 275.5328z" fill="#8a8a8a" p-id="33260"></path></svg>