<svg t="1626143225317" class="icon" viewBox="0 0 1024 1024" version="1.1" xmlns="http://www.w3.org/2000/svg" p-id="20117" width="200" height="200"><path d="M181.333333 810.666667h-149.333333A32 32 0 0 1 0 778.666667v-618.666667A32 32 0 0 1 32 128h576A75.733333 75.733333 0 0 1 682.666667 205.013333V531.2a32 32 0 0 1-64 0V205.013333a12.16 12.16 0 0 0-10.666667-12.8H64V746.666667h117.333333a32 32 0 0 1 0 64z" p-id="20118"></path><path d="M266.666667 896a117.333333 117.333333 0 1 1 117.333333-117.333333 117.546667 117.546667 0 0 1-117.333333 117.333333z m0-170.666667a53.333333 53.333333 0 1 0 53.333333 53.333334 53.333333 53.333333 0 0 0-53.333333-53.333334zM778.666667 896a117.333333 117.333333 0 1 1 117.333333-117.333333 117.546667 117.546667 0 0 1-117.333333 117.333333z m0-170.666667a53.333333 53.333333 0 1 0 53.333333 53.333334 53.333333 53.333333 0 0 0-53.333333-53.333334z" p-id="20119"></path><path d="M693.333333 810.666667h-341.333333a32 32 0 0 1 0-64h341.333333a32 32 0 0 1 0 64zM991.786667 810.666667h-128a32 32 0 0 1 0-64H960V499.84L846.293333 384H650.666667a32 32 0 0 1 0-64h209.066666a31.36 31.36 0 0 1 22.826667 9.6l132.053333 134.613333a31.573333 31.573333 0 0 1 9.386667 22.613334V778.666667a32 32 0 0 1-32.213333 32zM501.333333 341.333333h-320a32 32 0 0 1 0-64h320a32 32 0 0 1 0 64z" p-id="20120"></path><path d="M842.666667 512h-85.333334a32 32 0 0 1 0-64h85.333334a32 32 0 0 1 0 64z" p-id="20121"></path></svg>