<svg id="Capa_1" enable-background="new 0 0 512 512" height="512" viewBox="0 0 512 512" width="512" xmlns="http://www.w3.org/2000/svg"><g><circle cx="256" cy="256" fill="#f9f77a" r="256"/><path d="m512 256c0 141.38-114.62 256-256 256s-256-114.62-256-256z" fill="#f7d659"/><path d="m210.875 60.25h90.25v30h-90.25z" fill="#f7d659"/><path d="m210.875 421.75h90.25v30h-90.25z" fill="#f2aa35"/><path d="m150.625 120.5h210.75v30h-210.75z" fill="#f7d659"/><path d="m150.625 361.497h210.75v30h-210.75z" fill="#f2aa35"/><g fill="#5f52b1"><path d="m127.38 301.25v30h-60.13v-150.5h30v120.5z"/><path d="m178.62 180.75c-24.88 0-45.12 20.24-45.12 45.12v60.26c0 24.88 20.24 45.12 45.12 45.12 24.89 0 45.13-20.24 45.13-45.12v-60.26c0-24.88-20.24-45.12-45.13-45.12zm15.13 105.38c0 8.34-6.79 15.12-15.13 15.12-8.33 0-15.12-6.78-15.12-15.12v-60.26c0-8.34 6.79-15.12 15.12-15.12 8.34 0 15.13 6.78 15.13 15.12z"/><path d="m289.12 241h45.13v45.13c0 24.88-20.24 45.12-45.13 45.12-24.88 0-45.12-20.24-45.12-45.12v-60.26c0-24.88 20.24-45.12 45.12-45.12 24.89 0 45.13 20.24 45.13 45.12h-30c0-8.34-6.79-15.12-15.13-15.12-8.33 0-15.12 6.78-15.12 15.12v60.26c0 8.34 6.79 15.12 15.12 15.12 8.34 0 15.13-6.78 15.13-15.12v-15.13h-15.13z"/><path d="m399.62 180.75c-24.88 0-45.12 20.24-45.12 45.12v60.26c0 24.88 20.24 45.12 45.12 45.12 24.89 0 45.13-20.24 45.13-45.12v-60.26c0-24.88-20.24-45.12-45.13-45.12zm15.13 105.38c0 8.34-6.79 15.12-15.13 15.12-8.33 0-15.12-6.78-15.12-15.12v-60.26c0-8.34 6.79-15.12 15.12-15.12 8.34 0 15.13 6.78 15.13 15.12z"/></g><path d="m97.25 301.25h30.13v30h-60.13v-75.25h30z" fill="#453b85"/><path d="m193.75 256h30v30.13c0 24.88-20.24 45.12-45.13 45.12-24.88 0-45.12-20.24-45.12-45.12v-30.13h30v30.13c0 8.34 6.79 15.12 15.12 15.12 8.34 0 15.13-6.78 15.13-15.12z" fill="#453b85"/><path d="m289.12 256h45.13v30.13c0 24.88-20.24 45.12-45.13 45.12-24.88 0-45.12-20.24-45.12-45.12v-30.13h30v30.13c0 8.34 6.79 15.12 15.12 15.12 8.34 0 15.13-6.78 15.13-15.12v-15.13h-15.13z" fill="#453b85"/><path d="m444.75 256v30.13c0 24.88-20.24 45.12-45.13 45.12-24.88 0-45.12-20.24-45.12-45.12v-30.13h30v30.13c0 8.34 6.79 15.12 15.12 15.12 8.34 0 15.13-6.78 15.13-15.12v-30.13z" fill="#453b85"/></g></svg>