<svg t="1626144161692" class="icon" viewBox="0 0 1025 1024" version="1.1" xmlns="http://www.w3.org/2000/svg" p-id="25964" width="200" height="200"><path d="M1007.206875 1001.18374l-65.644327 0c-9.275403 0-16.793125-7.517722-16.793125-16.793125L924.769423 215.71889c0-1.091553 0.106356-2.183106 0.319069-3.252269l32.819365-166.223952c1.556163-7.86478 8.458137-13.540857 16.474056-13.540857s14.923491 5.670479 16.474056 13.540857l32.824962 166.223952c0.212713 1.069162 0.319069 2.160715 0.319069 3.252269l0 768.671725C1024 993.666018 1016.47668 1001.18374 1007.206875 1001.18374zM958.355673 967.59749l32.058076 0L990.413749 217.359019l-16.031837-81.177968-16.026239 81.177968L958.355673 967.59749zM765.928848 1001.18374 130.387423 1001.18374c-40.197144 0-73.167647-31.554282-75.445914-71.191656L16.793125 929.992084c-9.275403 0-16.793125-7.517722-16.793125-16.793125s7.517722-16.793125 16.793125-16.793125l38.025233 0 0-55.574049L16.793125 840.831784c-9.275403 0-16.793125-7.517722-16.793125-16.793125s7.517722-16.793125 16.793125-16.793125l38.025233 0 0-55.568452L16.793125 751.677082c-9.275403 0-16.793125-7.517722-16.793125-16.793125s7.517722-16.793125 16.793125-16.793125l38.025233 0 0-55.574049L16.793125 662.516782c-9.275403 0-16.793125-7.517722-16.793125-16.793125s7.517722-16.793125 16.793125-16.793125l38.025233 0 0-55.568452L16.793125 573.36208c-9.275403 0-16.793125-7.517722-16.793125-16.793125s7.517722-16.793125 16.793125-16.793125l38.025233 0 0-55.574049L16.793125 484.20178c-9.275403 0-16.793125-7.517722-16.793125-16.793125s7.517722-16.793125 16.793125-16.793125l38.025233 0 0-55.568452L16.793125 395.047078c-9.275403 0-16.793125-7.517722-16.793125-16.793125s7.517722-16.793125 16.793125-16.793125l38.025233 0 0-55.568452L16.793125 305.892375c-9.275403 0-16.793125-7.517722-16.793125-16.793125s7.517722-16.793125 16.793125-16.793125l38.025233 0L54.818359 216.743271 16.793125 216.743271c-9.275403 0-16.793125-7.517722-16.793125-16.793125s7.517722-16.793125 16.793125-16.793125l38.025233 0 0-55.568452L16.793125 127.588568c-9.275403 0-16.793125-7.517722-16.793125-16.793125s7.517722-16.793125 16.793125-16.793125l38.148383 0c2.278267-39.637373 35.243172-71.191656 75.445914-71.191656l635.541425 0c41.669342 0 75.569064 33.899722 75.569064 75.569064l0 827.229353C841.497912 967.284018 807.598189 1001.18374 765.928848 1001.18374zM88.628518 929.992084c2.194302 21.103361 20.084578 37.605405 41.753307 37.605405l635.541425 0c23.152122 0 41.982813-18.830691 41.982813-41.982813L807.906063 98.385324c0-23.152122-18.830691-41.982813-41.982813-41.982813L130.387423 56.40251c-21.674327 0-39.559006 16.502044-41.753307 37.605405l20.605165 0c9.275403 0 16.793125 7.517722 16.793125 16.793125s-7.517722 16.793125-16.793125 16.793125l-20.834671 0 0 55.568452 20.834671 0c9.275403 0 16.793125 7.517722 16.793125 16.793125s-7.517722 16.793125-16.793125 16.793125l-20.834671 0 0 55.574049 20.834671 0c9.275403 0 16.793125 7.517722 16.793125 16.793125s-7.517722 16.793125-16.793125 16.793125l-20.834671 0 0 55.568452 20.834671 0c9.275403 0 16.793125 7.517722 16.793125 16.793125s-7.517722 16.793125-16.793125 16.793125l-20.834671 0 0 55.568452 20.834671 0c9.275403 0 16.793125 7.517722 16.793125 16.793125s-7.517722 16.793125-16.793125 16.793125l-20.834671 0 0 55.574049 20.834671 0c9.275403 0 16.793125 7.517722 16.793125 16.793125s-7.517722 16.793125-16.793125 16.793125l-20.834671 0 0 55.568452 20.834671 0c9.275403 0 16.793125 7.517722 16.793125 16.793125s-7.517722 16.793125-16.793125 16.793125l-20.834671 0 0 55.574049 20.834671 0c9.275403 0 16.793125 7.517722 16.793125 16.793125s-7.517722 16.793125-16.793125 16.793125l-20.834671 0 0 55.568452 20.834671 0c9.275403 0 16.793125 7.517722 16.793125 16.793125s-7.517722 16.793125-16.793125 16.793125l-20.834671 0 0 55.574049 20.834671 0c9.275403 0 16.793125 7.517722 16.793125 16.793125s-7.517722 16.793125-16.793125 16.793125L88.628518 930.008878zM199.496731 767.46262c-4.461374 0-8.749218-1.774474-11.906326-4.953972l-30.910546-31.100868c-6.538123-6.582905-6.510135-17.212953 0.07277-23.751077 6.57171-6.532526 17.207356-6.504537 23.745479 0.07277l17.845495 17.951851 51.963527-62.979818c5.899985-7.148274 16.490849-8.161459 23.639123-2.267072 7.153871 5.905582 8.167057 16.485251 2.267072 23.64472l-63.757899 77.281963c-3.017165 3.655304-7.439355 5.871996-12.175016 6.090307C200.01172 767.457022 199.754226 767.46262 199.496731 767.46262zM729.028754 728.827236 363.643933 728.827236c-9.275403 0-16.793125-7.517722-16.793125-16.793125s7.517722-16.793125 16.793125-16.793125l365.384821 0c9.275403 0 16.793125 7.517722 16.793125 16.793125S738.304157 728.827236 729.028754 728.827236zM199.496731 587.681018c-4.461374 0-8.749218-1.774474-11.911924-4.953972l-30.910546-31.106466c-6.538123-6.582905-6.504537-17.212953 0.07277-23.751077 6.57171-6.532526 17.207356-6.504537 23.751077 0.07277l17.845495 17.957449 51.95793-62.985415c5.899985-7.148274 16.490849-8.161459 23.639123-2.267072 7.153871 5.905582 8.167057 16.485251 2.267072 23.64472l-63.757899 77.28756c-3.017165 3.655304-7.439355 5.871996-12.175016 6.090307C200.01172 587.67542 199.754226 587.681018 199.496731 587.681018zM729.028754 549.040037 363.643933 549.040037c-9.275403 0-16.793125-7.517722-16.793125-16.793125s7.517722-16.793125 16.793125-16.793125l365.384821 0c9.275403 0 16.793125 7.517722 16.793125 16.793125S738.304157 549.040037 729.028754 549.040037zM199.496731 407.893818c-4.461374 0-8.749218-1.774474-11.911924-4.953972l-30.910546-31.106466c-6.538123-6.582905-6.504537-17.212953 0.07277-23.751077 6.57171-6.532526 17.207356-6.504537 23.751077 0.07277l17.845495 17.957449 51.95793-62.979818c5.899985-7.148274 16.490849-8.161459 23.639123-2.267072 7.153871 5.905582 8.167057 16.485251 2.267072 23.64472l-63.757899 77.281963c-3.017165 3.655304-7.439355 5.871996-12.175016 6.090307C200.01172 407.888221 199.754226 407.893818 199.496731 407.893818zM729.028754 369.247239 363.643933 369.247239c-9.275403 0-16.793125-7.517722-16.793125-16.793125s7.517722-16.793125 16.793125-16.793125l365.384821 0c9.275403 0 16.793125 7.517722 16.793125 16.793125S738.304157 369.247239 729.028754 369.247239zM199.496731 228.106619c-4.461374 0-8.749218-1.774474-11.911924-4.953972l-30.910546-31.106466c-6.538123-6.582905-6.504537-17.212953 0.07277-23.751077 6.57171-6.532526 17.207356-6.504537 23.751077 0.07277l17.845495 17.957449 51.95793-62.979818c5.899985-7.148274 16.490849-8.161459 23.639123-2.267072 7.153871 5.905582 8.167057 16.485251 2.267072 23.64472l-63.757899 77.281963c-3.017165 3.655304-7.439355 5.871996-12.175016 6.090307C200.01172 228.101021 199.754226 228.106619 199.496731 228.106619zM729.028754 189.465638 363.643933 189.465638c-9.275403 0-16.793125-7.517722-16.793125-16.793125s7.517722-16.793125 16.793125-16.793125l365.384821 0c9.275403 0 16.793125 7.517722 16.793125 16.793125S738.304157 189.465638 729.028754 189.465638z" p-id="25965"></path></svg>