<svg t="1625820769705" class="icon" viewBox="0 0 1024 1024" version="1.1" xmlns="http://www.w3.org/2000/svg" p-id="1609" width="200" height="200"><path d="M152.99 941.13c-42.02 0-76.62-34.6-76.62-76.62V140.95c0-42.01 34.6-76.62 76.62-76.62h529.54c42.02 0 76.62 34.6 76.62 76.62v136.56c0 17.3-14.22 31.51-31.52 31.51-17.3 0-31.51-14.21-31.51-31.51V140.95c0-7.41-6.18-13.59-13.59-13.59H152.99c-7.42 0-13.59 6.18-13.59 13.59v723.56c0 7.42 6.18 13.59 13.59 13.59h259.52c8.03 0 16.06 3.71 21.62 9.89 5.56 6.18 8.66 14.22 8.66 22.24-0.62 16.68-13.6 30.28-30.9 30.9h-258.9z m0 0" p-id="1610"></path><path d="M228.37 278.74a27.694 27.694 0 0 1-27.81-27.81 27.7 27.7 0 0 1 27.81-27.81h317.6c15.44 0 27.8 12.36 27.8 27.81s-12.36 27.81-27.8 27.81h-317.6zM228.37 421.48a27.694 27.694 0 0 1-27.81-27.81c0-15.44 12.36-27.8 27.81-27.8h206.38c15.45 0 27.81 12.36 27.81 27.8 0 15.45-12.36 27.81-27.81 27.81H228.37zM228.37 564.83c-15.45 0-27.81-12.36-27.81-28.43 0-15.45 12.36-27.8 27.81-28.42h134.09c15.45 0 27.8 12.36 27.8 28.42 0 15.45-12.35 28.43-27.8 28.43H228.37zM726.4 628.47c-71.67 0-130.38-58.7-130.38-130.38 0-71.67 58.7-130.38 130.38-130.38 71.67 0 130.37 58.7 130.37 130.38 0 72.3-58.69 130.38-130.37 130.38z" p-id="1611"></path><path d="M726.4 423.95c-40.78 0-74.15 33.36-74.15 74.15s33.37 74.15 74.15 74.15c40.78 0 74.15-33.36 74.15-74.15s-33.37-74.15-74.15-74.15z" p-id="1612"></path><path d="M919.81 959.05H533a27.694 27.694 0 0 1-27.81-27.81V795.31c0-15.45 12.35-27.81 27.81-27.81h386.8c15.45 0 27.8 12.36 27.8 27.81v135.93c0.63 15.45-12.35 27.81-27.79 27.81z" p-id="1613"></path><path d="M560.8 823.73H892v79.71H560.8z" p-id="1614"></path><path d="M592.94 821.87c-11.12 0-21.63-7.41-25.34-18.53-4.33-13.6 3.7-28.43 17.3-32.75 95.78-29.66 75.38-160.04 74.15-165.6-2.47-14.21 7.42-27.8 21.63-30.28 14.2-2.47 27.8 7.42 30.27 21.62 10.5 62.41 1.23 189.7-110.61 224.31-2.46 0.62-4.94 1.23-7.4 1.23z m273.11 0c-2.47 0-4.94-0.61-8.03-1.23-111.83-34.6-121.11-161.89-110.61-224.31 2.48-14.21 16.07-24.09 30.28-21.62 14.22 2.48 24.1 16.07 21.62 30.28-0.61 5.56-21.01 135.94 74.15 165.6 13.59 4.32 21.62 19.15 17.3 32.75-3.09 11.12-13.59 18.53-24.71 18.53z m0 0" p-id="1615"></path></svg>