<?xml version="1.0" standalone="no"?><!DOCTYPE svg PUBLIC "-//W3C//DTD SVG 1.1//EN" "http://www.w3.org/Graphics/SVG/1.1/DTD/svg11.dtd"><svg t="1624527491607" class="icon" viewBox="0 0 1024 1024" version="1.1" xmlns="http://www.w3.org/2000/svg" p-id="1780" xmlns:xlink="http://www.w3.org/1999/xlink" width="200" height="200"><defs><style type="text/css"></style></defs><path d="M405.617778 967.111111H269.748148c-46.08 0-83.626667-37.546667-83.626667-83.626667v-65.611851c0-15.739259 12.705185-28.444444 28.444445-28.444445s28.444444 12.705185 28.444444 28.444445v65.611851c0 14.791111 12.041481 26.737778 26.737778 26.737778h107.330371V680.296296c0-15.739259 12.705185-28.444444 28.444444-28.444444s28.444444 12.705185 28.444444 28.444444V938.666667c0.094815 15.739259-12.705185 28.444444-28.349629 28.444444z" p-id="1781" fill="#d3d32b"></path><path d="M760.035556 967.111111H624.165926c-15.739259 0-28.444444-12.705185-28.444445-28.444444V680.296296c0-15.739259 12.705185-28.444444 28.444445-28.444444s28.444444 12.705185 28.444444 28.444444V910.222222h107.330371c14.791111 0 26.737778-12.041481 26.737778-26.737778V496.165926c0-10.42963-8.533333-18.962963-18.962963-18.962963H90.074074c-15.739259 0-28.444444-12.705185-28.444444-28.444444s12.705185-28.444444 28.444444-28.444445h677.736296c41.813333 0 75.851852 34.038519 75.851852 75.851852v387.318518c0 46.08-37.546667 83.626667-83.626666 83.626667z" p-id="1782" fill="#d3d32b"></path><path d="M623.786667 708.740741c-15.739259 0-28.444444-12.705185-28.444445-28.444445 0-43.994074-36.219259-79.739259-80.687407-79.739259s-80.687407 35.745185-80.687408 79.739259c0 15.739259-12.705185 28.444444-28.444444 28.444445s-28.444444-12.705185-28.444444-28.444445c0-75.377778 61.724444-136.628148 137.576296-136.628148s137.576296 61.345185 137.576296 136.628148c0 15.739259-12.705185 28.444444-28.444444 28.444445zM90.074074 477.202963c-7.774815 0-15.54963-3.223704-21.238518-9.481482-10.524444-11.662222-9.481481-29.677037 2.18074-40.201481L463.454815 76.231111c28.728889-25.694815 72.059259-25.78963 100.882963-0.094815L957.62963 427.52c11.757037 10.42963 12.705185 28.444444 2.275555 40.201481-10.42963 11.757037-28.444444 12.705185-40.201481 2.275556L526.411852 118.613333c-7.111111-6.352593-17.92-6.352593-25.031111 0L109.037037 469.902222c-5.499259 4.835556-12.231111 7.300741-18.962963 7.300741z" p-id="1783" fill="#d3d32b"></path><path d="M214.565926 573.155556m-18.962963 0a18.962963 18.962963 0 1 0 37.925926 0 18.962963 18.962963 0 1 0-37.925926 0Z" p-id="1784" fill="#d3d32b"></path><path d="M214.565926 606.340741c-18.299259 0-33.185185-14.885926-33.185185-33.185185s14.885926-33.185185 33.185185-33.185186 33.185185 14.885926 33.185185 33.185186-14.885926 33.185185-33.185185 33.185185z m0-37.925926c-2.654815 0-4.740741 2.085926-4.740741 4.740741s2.085926 4.740741 4.740741 4.74074 4.740741-2.085926 4.740741-4.74074-2.085926-4.740741-4.740741-4.740741z" p-id="1785" fill="#d3d32b"></path><path d="M214.565926 656.687407m-18.962963 0a18.962963 18.962963 0 1 0 37.925926 0 18.962963 18.962963 0 1 0-37.925926 0Z" p-id="1786" fill="#d3d32b"></path><path d="M214.565926 689.872593c-18.299259 0-33.185185-14.885926-33.185185-33.185186s14.885926-33.185185 33.185185-33.185185 33.185185 14.885926 33.185185 33.185185-14.885926 33.185185-33.185185 33.185186z m0-37.925926c-2.654815 0-4.740741 2.085926-4.740741 4.74074s2.085926 4.740741 4.740741 4.740741 4.740741-2.085926 4.740741-4.740741-2.085926-4.740741-4.740741-4.74074z" p-id="1787" fill="#d3d32b"></path><path d="M214.565926 736.521481m-18.962963 0a18.962963 18.962963 0 1 0 37.925926 0 18.962963 18.962963 0 1 0-37.925926 0Z" p-id="1788" fill="#d3d32b"></path><path d="M214.565926 769.706667c-18.299259 0-33.185185-14.885926-33.185185-33.185186s14.885926-33.185185 33.185185-33.185185 33.185185 14.885926 33.185185 33.185185-14.885926 33.185185-33.185185 33.185186z m0-37.925926c-2.654815 0-4.740741 2.085926-4.740741 4.74074s2.085926 4.740741 4.740741 4.740741 4.740741-2.085926 4.740741-4.740741-2.085926-4.740741-4.740741-4.74074z" p-id="1789" fill="#d3d32b"></path></svg>