<svg t="1625810911589" class="icon" viewBox="0 0 1024 1024" version="1.1" xmlns="http://www.w3.org/2000/svg" p-id="973" width="200" height="200"><path d="M365.6 131.24h292.33v53.15H365.6z" p-id="974"></path><path d="M898.49 960.07H125.97c-17.3 0-31.52-14.22-31.52-31.52V155.4c0-17.3 14.21-31.52 31.52-31.52h204.57c17.3 0 31.51 14.22 31.51 31.52s-14.21 31.52-31.51 31.52H157.48v710.1h710.11v-710.1H693.93c-17.31 0-31.53-14.22-31.53-31.52s14.21-31.52 31.53-31.52h205.18c17.31 0 31.52 14.22 31.52 31.52v773.14c-0.62 17.31-14.21 31.53-32.14 31.53z m0 0" p-id="975"></path><path d="M690.22 243.16H334.86c-17.3 0-31.52-14.22-31.52-31.52V95.45c0-17.3 14.22-31.52 31.52-31.52h355.36c17.3 0 31.52 14.22 31.52 31.52v116.19c0 17.92-14.22 31.52-31.52 31.52z m-323.85-63.04H658.7v-53.15H366.37v53.15z m320.76 279.97H338.57c-15.46 0-27.81-12.36-27.81-27.81s12.35-27.81 27.81-27.81h347.95c15.45 0 27.81 12.36 27.81 27.81-0.01 15.45-11.75 27.81-27.2 27.81z m0 0" p-id="976"></path><path d="M434.97 557.73c-7.42 0-14.21-2.47-19.77-8.03l-97.04-97.64c-11.12-11.13-11.12-28.43 0-39.56l97.04-97.03c11.12-11.12 28.43-11.12 39.55 0 11.12 11.12 11.12 28.42 0 39.55l-77.25 77.25 77.25 77.25c11.12 11.13 11.12 28.43 0 39.55-5.56 5.57-12.36 8.66-19.78 8.66z m250.92 131.02H337.94a27.694 27.694 0 0 1-27.81-27.81c0-15.45 12.36-27.81 27.81-27.81h347.95c15.45 0 27.81 12.36 27.81 27.81s-12.36 27.81-27.81 27.81z m0 0" p-id="977"></path><path d="M586.39 789.49c-7.42 0-14.21-2.48-19.78-8.03-11.12-11.13-11.12-28.43 0-39.56l80.96-80.96-78.49-78.49c-11.13-11.13-11.13-28.43 0-39.56 11.12-11.13 28.43-11.13 39.55 0l98.27 98.26c5.57 5.57 8.03 12.36 8.03 19.78 0 7.42-3.09 14.83-8.03 19.78L606.17 781.46c-5.56 4.94-12.36 8.03-19.78 8.03z m0 0" p-id="978"></path></svg>