<svg t="1625811774198" class="icon" viewBox="0 0 1024 1024" version="1.1" xmlns="http://www.w3.org/2000/svg" p-id="7886" width="200" height="200"><path d="M277.333333 325.333333m5.333334 0l325.333333 0q5.333333 0 5.333333 5.333334l0 64q0 5.333333-5.333333 5.333333l-325.333333 0q-5.333333 0-5.333334-5.333333l0-64q0-5.333333 5.333334-5.333334Z" p-id="7887"></path><path d="M277.333333 474.666667m5.333334 0l325.333333 0q5.333333 0 5.333333 5.333333l0 64q0 5.333333-5.333333 5.333333l-325.333333 0q-5.333333 0-5.333334-5.333333l0-64q0-5.333333 5.333334-5.333333Z" p-id="7888"></path><path d="M277.333333 624m5.333334 0l247.36 0q5.333333 0 5.333333 5.333333l0 64q0 5.333333-5.333333 5.333334l-247.36 0q-5.333333 0-5.333334-5.333334l0-64q0-5.333333 5.333334-5.333333Z" p-id="7889"></path><path d="M565.333333 842.666667H186.666667a5.333333 5.333333 0 0 1-5.333334-5.333334V186.666667a5.333333 5.333333 0 0 1 5.333334-5.333334h522.666666v346.24a5.333333 5.333333 0 0 0 5.333334 5.333334h64a5.333333 5.333333 0 0 0 5.333333-5.333334V106.666667H112a5.333333 5.333333 0 0 0-5.333333 5.333333v800a5.333333 5.333333 0 0 0 5.333333 5.333333h453.333333a5.333333 5.333333 0 0 0 5.333334-5.333333v-64a5.333333 5.333333 0 0 0-5.333334-5.333333z" p-id="7890"></path><path d="M916.16 730.666667a174.773333 174.773333 0 0 0-246.666667-138.666667 5.333333 5.333333 0 0 0-0.426666 9.546667l85.92 49.6a5.653333 5.653333 0 0 0 1.813333 0.64 99.786667 99.786667 0 0 1 44.64 179.626666 5.333333 5.333333 0 0 0 0.426667 8.853334l100.853333 58.186666a5.333333 5.333333 0 0 0 7.946667-4.64v-76.8l-5.333334-2.986666a173.813333 173.813333 0 0 0 10.826667-83.36zM818.613333 891.84l-85.973333-49.653333a5.653333 5.653333 0 0 0-1.813333-0.64 99.786667 99.786667 0 0 1-44.693334-179.573334 5.333333 5.333333 0 0 0-0.48-8.96l-62.133333-35.893333-38.56-22.24a5.333333 5.333333 0 0 0-8 4.64v76.906667l5.333333 2.986666A174.72 174.72 0 0 0 818.186667 901.333333a5.333333 5.333333 0 0 0 0.426666-9.493333z" p-id="7891"></path></svg>