<svg t="1625628677877" class="icon" viewBox="0 0 1024 1024" version="1.1" xmlns="http://www.w3.org/2000/svg" p-id="19675" width="200" height="200"><path d="M853.3 0H170.7C76.8 0 0 76.8 0 170.7v682.7C0 947.2 76.8 1024 170.7 1024h682.7c93.9 0 170.7-76.8 170.7-170.7V170.7C1024 76.8 947.2 0 853.3 0zM170.7 85.3h682.7c47.1 0 85.3 38.3 85.3 85.3v367.9L809 490.8c-35.2-18.4-79.2-12.2-105.8 13.9l-242 196.2c-3.3 3.2-8 3.1-9.9 1.9-2.4-1.8-5-3.3-7.7-4.5l-140.5-63.7c-38.5-24.9-92.6-16.6-122.1 19.2L85.3 764.5V170.7c0-47.1 38.3-85.4 85.4-85.4z m682.6 853.4H170.7c-35.1 0-65.3-21.3-78.3-51.7l154-178.2c2.9-3.6 8.4-4.1 10.5-2.6 2.4 1.8 5 3.3 7.7 4.5L405 774.4c35.6 23 84.3 18.2 112.8-9.8l242.1-196.2c3-2.9 7.4-3.3 9.6-2 2.2 1.3 4.5 2.4 7 3.3l162.2 59.8v223.8c0 47.1-38.3 85.4-85.4 85.4z" p-id="19676"></path><path d="M335.4 487.8c94.1 0 170.7-76.5 170.7-170.7s-76.5-170.7-170.7-170.7S164.7 223 164.7 317.1s76.5 170.7 170.7 170.7z m0-256c47 0 85.3 38.3 85.3 85.3s-38.3 85.3-85.3 85.3-85.4-38.3-85.4-85.3 38.3-85.3 85.4-85.3z" p-id="19677"></path></svg>