<svg t="1622627196635" class="icon" viewBox="0 0 1024 1024" version="1.1" xmlns="http://www.w3.org/2000/svg" p-id="1167" width="200" height="200"><path d="M474.074074 967.111111H171.045926C76.8 967.111111 0 890.311111 0 796.065185V265.860741C0 171.614815 76.8 94.814815 171.045926 94.814815h643.792593C909.274074 94.814815 986.074074 171.614815 986.074074 265.860741V493.037037c0 20.859259-17.066667 37.925926-37.925926 37.925926s-37.925926-17.066667-37.925926-37.925926V265.860741C910.222222 213.333333 867.555556 170.666667 815.028148 170.666667H171.045926C118.518519 170.666667 75.851852 213.333333 75.851852 265.860741v530.014815C75.851852 848.592593 118.518519 891.259259 171.045926 891.259259H474.074074c20.859259 0 37.925926 17.066667 37.925926 37.925926s-17.066667 37.925926-37.925926 37.925926z" p-id="1168"></path><path d="M284.444444 265.481481c-20.859259 0-37.925926-17.066667-37.925925-37.925925V37.925926c0-20.859259 17.066667-37.925926 37.925925-37.925926s37.925926 17.066667 37.925926 37.925926v189.62963c0 20.859259-17.066667 37.925926-37.925926 37.925925zM701.62963 265.481481c-20.859259 0-37.925926-17.066667-37.925926-37.925925V37.925926c0-20.859259 17.066667-37.925926 37.925926-37.925926s37.925926 17.066667 37.925926 37.925926v189.62963c0 20.859259-17.066667 37.925926-37.925926 37.925925zM929.185185 398.222222H56.888889c-20.859259 0-37.925926-17.066667-37.925926-37.925926s17.066667-37.925926 37.925926-37.925926h872.296296c20.859259 0 37.925926 17.066667 37.925926 37.925926s-17.066667 37.925926-37.925926 37.925926z" p-id="1169"></path><path d="M796.444444 606.814815c99.365926 0 180.148148 80.782222 180.148149 180.148148S895.81037 967.111111 796.444444 967.111111s-180.148148-80.782222-180.148148-180.148148S697.078519 606.814815 796.444444 606.814815m0-37.925926c-120.414815 0-218.074074 97.659259-218.074074 218.074074S676.02963 1005.037037 796.444444 1005.037037s218.074074-97.659259 218.074075-218.074074S916.859259 568.888889 796.444444 568.888889z" p-id="1170"></path><path d="M872.296296 862.814815c-2.844444 0-5.688889-0.568889-8.533333-2.085926L777.481481 817.682963V692.148148c0-10.42963 8.533333-18.962963 18.962963-18.962963s18.962963 8.533333 18.962963 18.962963v102.020741l65.422223 32.616296c9.291852 4.740741 13.084444 16.118519 8.533333 25.410371-3.413333 6.826667-10.05037 10.619259-17.066667 10.619259z" p-id="1171"></path></svg>