<?xml version="1.0" standalone="no"?><!DOCTYPE svg PUBLIC "-//W3C//DTD SVG 1.1//EN" "http://www.w3.org/Graphics/SVG/1.1/DTD/svg11.dtd"><svg t="1624519541270" class="icon" viewBox="0 0 1024 1024" version="1.1" xmlns="http://www.w3.org/2000/svg" p-id="30956" xmlns:xlink="http://www.w3.org/1999/xlink" width="200" height="200"><defs><style type="text/css"></style></defs><path d="M756.0704 878.8992H267.9296c-5.632 0-10.24-4.608-10.24-10.24V237.4656c0-5.632 4.608-10.24 10.24-10.24h488.192c5.632 0 10.24 4.608 10.24 10.24v631.2448c-0.0512 5.632-4.608 10.1888-10.2912 10.1888z m-477.9008-20.48h467.712V247.7056H278.1696v610.7136z" p-id="30957" fill="#d81e06"></path><path d="M860.16 247.7056H163.84c-5.632 0-10.24-4.608-10.24-10.24s4.608-10.24 10.24-10.24h696.32a10.24 10.24 0 1 1 0 20.48zM430.4896 761.344c-5.632 0-10.24-4.608-10.24-10.24V355.0208c0-5.632 4.608-10.24 10.24-10.24s10.24 4.608 10.24 10.24v396.1344c0 5.632-4.608 10.1888-10.24 10.1888zM593.5104 761.344c-5.632 0-10.24-4.608-10.24-10.24V355.0208c0-5.632 4.608-10.24 10.24-10.24s10.24 4.608 10.24 10.24v396.1344c0 5.632-4.608 10.1888-10.24 10.1888z" p-id="30958" fill="#d81e06"></path><path d="M600.0128 247.7056H423.9872c-5.632 0-10.24-4.608-10.24-10.24V155.3408c0-5.632 4.608-10.24 10.24-10.24h176.0768c5.632 0 10.24 4.608 10.24 10.24v82.1248c-0.0512 5.632-4.608 10.24-10.2912 10.24z m-165.7856-20.48h155.5968V165.5808H434.2272v61.6448z" p-id="30959" fill="#d81e06"></path></svg>