<?xml version="1.0" standalone="no"?><!DOCTYPE svg PUBLIC "-//W3C//DTD SVG 1.1//EN" "http://www.w3.org/Graphics/SVG/1.1/DTD/svg11.dtd"><svg t="1627436004336" class="icon" viewBox="0 0 1024 1024" version="1.1" xmlns="http://www.w3.org/2000/svg" p-id="1717" xmlns:xlink="http://www.w3.org/1999/xlink" width="200" height="200"><defs><style type="text/css">@font-face { font-family: feedback-iconfont; src: url("//at.alicdn.com/t/font_1031158_1uhr8ri0pk5.eot?#iefix") format("embedded-opentype"), url("//at.alicdn.com/t/font_1031158_1uhr8ri0pk5.woff2") format("woff2"), url("//at.alicdn.com/t/font_1031158_1uhr8ri0pk5.woff") format("woff"), url("//at.alicdn.com/t/font_1031158_1uhr8ri0pk5.ttf") format("truetype"), url("//at.alicdn.com/t/font_1031158_1uhr8ri0pk5.svg#iconfont") format("svg"); }
</style></defs><path d="M42.666667 42.666667h938.666666v938.666666H42.666667z" fill="#0b988f" fill-opacity="0" p-id="1718"></path><path d="M533.333333 85.333333a425.301333 425.301333 0 0 0-299.648 122.922667l-4.736-34.218667a21.333333 21.333333 0 0 0-20.266666-18.346666l-3.84 0.213333a21.333333 21.333333 0 0 0-18.346667 20.224l0.170667 3.84L197.973333 260.266667a25.6 25.6 0 0 0 24.746667 22.016l4.181333-0.213334 80.256-11.306666a21.333333 21.333333 0 0 0-2.090666-42.453334l-3.84 0.213334-31.616 4.437333 1.706666-1.664A382.549333 382.549333 0 0 1 533.333333 128a384 384 0 1 1-384 384 21.333333 21.333333 0 1 0-42.666666 0c0 235.648 191.018667 426.666667 426.666666 426.666667s426.666667-191.018667 426.666667-426.666667-191.018667-426.666667-426.666667-426.666667z" fill="#0b988f" p-id="1719"></path><path d="M704 385.066667a21.333333 21.333333 0 0 1 31.573333 28.373333l-2.56 2.858667-214.485333 199.338666a42.666667 42.666667 0 0 1-56.405333-0.682666l-3.754667-3.84-91.306667-106.112a21.333333 21.333333 0 0 1 29.568-30.506667l2.730667 2.688 91.349333 106.112L704 385.066667z" fill="#0b988f" p-id="1720"></path></svg>