<svg height="512" viewBox="0 0 64 64" width="512" xmlns="http://www.w3.org/2000/svg"><g id="Layer_8" data-name="Layer 8"><path d="m2 14h60v36h-60z" fill="#c8cded"/><path d="m58 44v-30h-56v32h54a2 2 0 0 0 2-2z" fill="#e2e7f6"/><path d="m17 33 7 5-3-7 7-5h-8l-3-8-3 8h-8l7 5-3 7z" fill="#f0ae42"/><path d="m6 42h22v4h-22z" fill="#f0ae42"/><path d="m26 43v-1h-20v2h19a1 1 0 0 0 1-1z" fill="#f9d266"/><g fill="#4d8c28"><circle cx="55" cy="22" r="3"/><circle cx="45" cy="22" r="3"/><circle cx="35" cy="22" r="3"/><circle cx="55" cy="32" r="3"/><circle cx="45" cy="32" r="3"/><circle cx="35" cy="32" r="3"/><circle cx="55" cy="42" r="3"/><circle cx="45" cy="42" r="3"/><circle cx="35" cy="42" r="3"/></g><path d="m12.006 50.006 11.994 11.994 12-12" fill="#9da1bf"/><path d="m52 14-12-12-12 12" fill="#c8cded"/><path d="m29.343 21h11.314v2h-11.314z" fill="#f4a93c" transform="matrix(.707 -.707 .707 .707 -5.305 31.192)"/><path d="m39.343 21h11.314v2h-11.314z" fill="#f4a93c" transform="matrix(.707 -.707 .707 .707 -2.376 38.263)"/><path d="m62 13h-9.586l-11.707-11.707a1 1 0 0 0 -1.414 0l-11.707 11.707h-25.586a1 1 0 0 0 -1 1v36a1 1 0 0 0 1 1h9.586l11.707 11.707a1 1 0 0 0 1.414 0l11.707-11.707h25.586a1 1 0 0 0 1-1v-36a1 1 0 0 0 -1-1zm-22-9.586 9.586 9.586h-19.172zm-16 57.172-9.586-9.586h19.172zm37-11.586h-58v-34h58z"/><path d="m5.419 26.814 6.345 4.532-2.683 6.26a1 1 0 0 0 1.5 1.208l6.419-4.585 6.419 4.585a1 1 0 0 0 1.5-1.208l-2.683-6.26 6.345-4.532a1 1 0 0 0 -.581-1.814h-7.307l-2.756-7.351a1 1 0 0 0 -1.874 0l-2.756 7.351h-7.307a1 1 0 0 0 -.581 1.814zm8.581.186a1 1 0 0 0 .937-.649l2.063-5.503 2.063 5.5a1 1 0 0 0 .937.652h4.88l-4.461 3.186a1 1 0 0 0 -.338 1.208l1.592 3.715-4.092-2.923a1 1 0 0 0 -1.162 0l-4.092 2.923 1.592-3.715a1 1 0 0 0 -.338-1.208l-4.461-3.186z"/><path d="m6 47h22a1 1 0 0 0 1-1v-4a1 1 0 0 0 -1-1h-22a1 1 0 0 0 -1 1v4a1 1 0 0 0 1 1zm1-4h20v2h-20z"/><path d="m55 26a4 4 0 1 0 -4-4 4 4 0 0 0 4 4zm0-6a2 2 0 1 1 -2 2 2 2 0 0 1 2-2z"/><path d="m55 36a4 4 0 1 0 -4-4 4 4 0 0 0 4 4zm0-6a2 2 0 1 1 -2 2 2 2 0 0 1 2-2z"/><path d="m45 28a4 4 0 1 0 4 4 4 4 0 0 0 -4-4zm0 6a2 2 0 1 1 2-2 2 2 0 0 1 -2 2z"/><path d="m35 28a4 4 0 1 0 4 4 4 4 0 0 0 -4-4zm0 6a2 2 0 1 1 2-2 2 2 0 0 1 -2 2z"/><path d="m55 46a4 4 0 1 0 -4-4 4 4 0 0 0 4 4zm0-6a2 2 0 1 1 -2 2 2 2 0 0 1 2-2z"/><path d="m45 38a4 4 0 1 0 4 4 4 4 0 0 0 -4-4zm0 6a2 2 0 1 1 2-2 2 2 0 0 1 -2 2z"/><path d="m35 38a4 4 0 1 0 4 4 4 4 0 0 0 -4-4zm0 6a2 2 0 1 1 2-2 2 2 0 0 1 -2 2z"/><path d="m31.707 26.707 1.274-1.274a3.947 3.947 0 0 0 2.019.567 4 4 0 0 0 4-4 3.947 3.947 0 0 0 -.567-2.019l1.274-1.274-1.414-1.414-1.274 1.274a3.947 3.947 0 0 0 -2.019-.567 4 4 0 0 0 -4 4 3.947 3.947 0 0 0 .567 2.019l-1.274 1.274zm5.293-4.707a2 2 0 0 1 -2 2 1.96 1.96 0 0 1 -.511-.075l2.436-2.436a1.96 1.96 0 0 1 .075.511zm-4 0a2 2 0 0 1 2-2 1.96 1.96 0 0 1 .511.075l-2.436 2.436a1.96 1.96 0 0 1 -.075-.511z"/><path d="m41.707 26.707 1.274-1.274a3.947 3.947 0 0 0 2.019.567 4 4 0 0 0 4-4 3.947 3.947 0 0 0 -.567-2.019l1.274-1.274-1.414-1.414-1.274 1.274a3.947 3.947 0 0 0 -2.019-.567 4 4 0 0 0 -4 4 3.947 3.947 0 0 0 .567 2.019l-1.274 1.274zm5.293-4.707a2 2 0 0 1 -2 2 1.96 1.96 0 0 1 -.511-.075l2.436-2.436a1.96 1.96 0 0 1 .075.511zm-4 0a2 2 0 0 1 2-2 1.96 1.96 0 0 1 .511.075l-2.436 2.436a1.96 1.96 0 0 1 -.075-.511z"/></g></svg>