<svg id="Capa_1" enable-background="new 0 0 497.003 497.003" height="512" viewBox="0 0 497.003 497.003" width="512" xmlns="http://www.w3.org/2000/svg"><g id="_x3C_Group_x3E__5_"><path d="m471.569 162.351 14.527-14.675c14.543-14.543 14.543-38.121 0-52.664l-84.106-84.105c-14.543-14.543-38.121-14.543-52.664 0l-81.766 81.766c-10.526 10.526-27.591 10.526-38.116 0l-38.536-38.536-24.894-24.894-18.336-18.336c-14.543-14.543-38.121-14.543-52.664 0l-69.86 69.861-3.736 9.643c-14.543 14.543-14.543 38.121 0 52.664l19.87 20.386 61.415 61.403c10.386 10.384.554 32.065-9.802 42.479l-53.457 53.757-22.111 23.609c-14.543 14.543-14.543 38.121 0 52.664l77.719 81.355c14.543 14.543 38.121 14.543 52.664 0l20.853-13.524 60.876-60.876c10.526-10.526 33.958-20.289 44.484-9.764l58.33 58.33c27.486 27.486 65.682 37.249 93.168 9.764l7.362-7.362 53.308-53.308c14.543-14.543 14.543-38.121 0-52.664l-13.47-13.697-66.373-66.032c-11.694-11.634-11.698-30.559-.009-42.198z" fill="#e27f86"/><g fill="#df646e"><path d="m427.383 460.7-1.96 1.96-17.36 17.36-6.07 6.07c-14.55 14.55-38.12 14.55-52.67 0l-81.76-81.76c-9.04-9.04-22.89-10.31-33.29-3.83l1.02-1.02 25.15-25.15c10.53-10.53 27.59-10.53 38.12 0l81.76 81.76c12.8 12.8 32.58 14.33 47.06 4.61z"/><path d="m173.073 460.7-25.39 25.39c-14.55 14.55-38.12 14.55-52.67 0l-84.1-84.1c-14.55-14.55-14.55-38.12 0-52.67l14.71-14.32 13.79-13.87 2.1-2.11c-14.54 14.54-14.15 38.42.4 52.97l84.1 84.1c12.8 12.8 32.58 14.33 47.06 4.61z"/><path d="m123.903 237.34-31 30c.32-.32.64-.66.94-.99 9.4-10.46 9.07-26.57-1-36.64l-61.41-61.4-20.52-20.63c-14.55-14.55-14.55-38.12 0-52.67l8.28-8.28 7.21-7.21c-2.06 11.59 1.38 23.96 10.33 32.92l25.7 25.87 61.41 61.4c10.389 10.39 10.41 27.22.06 37.63z"/></g><g><path d="m286.893 336.947c-20.583 0-40.614-8.671-56.284-24.34-15.182-15.181-22.298-33.151-22.298-54.621s6.606-40.325 21.787-55.507c1.84-1.84 3.722-4.9 5.702-6.536 14.359-11.868 32.234-18.325 51.101-18.325 21.47 0 41.655 8.361 56.836 23.542 29.38 29.38 31.216 76.034 5.509 107.574-1.714 2.103-5.53 4.127-7.489 6.086-15.669 15.669-34.281 22.127-54.864 22.127zm.009-118.856c-10.658 0-20.678 4.151-28.216 11.687s-11.687 17.557-11.687 28.216c0 10.658 4.15 20.679 11.687 28.216 15.559 15.557 40.873 15.559 56.432 0 15.558-15.558 15.558-40.874 0-56.432-7.537-7.536-17.557-11.687-28.216-11.687z" fill="#faf063"/></g><g><path d="m301.902 323.335c-20.583 0-41.166-7.835-56.835-23.504-15.181-15.181-23.543-35.366-23.543-56.836 0-17.891 5.825-34.879 16.545-48.833-2.791 2.144-5.472 4.467-8.003 6.997-15.181 15.182-23.543 35.366-23.543 56.836s8.361 41.655 23.543 56.836c15.669 15.67 36.252 23.504 56.835 23.504 20.584 0 41.167-7.835 56.836-23.504 2.543-2.544 4.858-5.228 6.989-8.01-14.353 10.995-31.582 16.514-48.824 16.514z" fill="#f5de46"/></g><g><g><path d="m71.588 336.995c-10.966-.39-18.766-8.692-18.766-19.665l-.596-119.106c0-8.248 4.271-15.309 11.872-18.511 2.508-1.056 5.132-2.121 7.705-2.146 6.594-.064 12.961 3.108 16.85 8.738l41.256 59.74c1.681 2.434 6.878 2.051 6.85-.907l-1.085-47.362c-.108-11.176 8.118-20.325 19.294-20.432.066-.001.134-.001.2-.001 11.086 0 20.125 8.931 20.232 20.041l1.124 116.228c.001.065.001.13.001.196 0 10.428-6.04 19.053-15.389 21.973-9.061 2.832-17.809-1.904-23.462-10.069l-40.511-56.511c-1.672-2.422-4.924.202-4.924 3.145v45.514c-.001 11.423-9.138 19.544-20.651 19.135z" fill="#faf063"/></g></g><g fill="#f5de46"><path d="m146.703 269.795c2.83 4.002 9.13 1.966 9.082-2.935l-.859-88.828c-.001-.145.039-.543.04-.687-11.165.12-20.148 9.518-20.04 20.687l.45 46.535c.003 1.297-1.124 2.343-2.058 2.621-1.157.328-2.554.072-3.325-1.026z"/><path d="m91.263 318.341c-10.966-.39-19.5-9.736-19.5-20.709v-119.087c0-.236.032-.743.04-.978-2.568.026-5.184.544-7.687 1.599-7.602 3.202-12.352 10.717-12.352 19.379v119.087c0 10.973 8.533 20.319 19.5 20.709 11.442.407 20.849-8.692 20.964-20.016-.323.004-.64.027-.965.016z"/><path d="m172.083 319.565c-7.032 2.855-15.114.182-19.448-6.048l-51.304-73.704c-2.797-4.018-9.104-2.039-9.104 2.857v29.933c.031-1.237.776-2.335 1.882-2.779 1.258-.505 2.752-.073 3.598 1.074 12.942 18.741 25.884 37.481 38.825 56.222 5.654 8.165 15.542 11.75 24.603 8.918 14.559-4.856 15.216-19.107 15.216-19.107s-1.452 1.491-4.268 2.634z"/></g><g><path d="m445.242 341.316c0 2.703-.447 5.301-1.27 7.725-3.216 9.465-18.968 15.309-22.724 15.309-13.255 0-23.234-12.426-23.234-23.035 0-5.136 6.039-19.514 15.503-22.73 2.424-.824 5.022-1.27 7.725-1.27 13.255.001 24 10.746 24 24.001z" fill="#faf063"/><g><g><g><path d="m420.603 283.872c-13.255 0-19.526-18.266-19.526-31.521l-.511-94.979c0-10.552 3.486-21.203 12.95-24.418 2.424-.824 5.022-1.27 7.725-1.27 13.255 0 24 10.745 24 24v107.633c0 2.703-.447 5.301-1.27 7.725-3.216 9.464-12.816 12.83-23.368 12.83z" fill="#faf063"/></g></g></g></g><g fill="#f5de46"><path d="m436.242 350.316c-13.255 0-24-10.745-24-24 0-2.703.453-5.298 1.277-7.723-9.464 3.216-16.277 12.171-16.277 22.723 0 13.255 10.745 24 24 24 10.552 0 19.507-6.813 22.723-16.277-2.425.824-5.02 1.277-7.723 1.277z"/><path d="m412.242 254.806v-114.123c0-2.703.453-5.298 1.277-7.723-9.464 3.216-16.277 12.171-16.277 22.723v107.109c0 13.226 10.477 24.362 23.702 24.522 10.681.13 19.774-6.722 23.02-16.275-8.138 2.766-31.568 2.078-31.722-16.233z"/></g></g></svg>