<svg t="1622628357871" class="icon" viewBox="0 0 1024 1024" version="1.1" xmlns="http://www.w3.org/2000/svg" p-id="900" width="200" height="200"><path d="M54.272 153.6v217.6c0 30.208 24.064 54.272 54.272 54.272h217.6c29.696 0 54.272-24.064 54.272-53.76V153.6c0-29.696-24.064-54.272-53.76-54.272H108.544c-29.696 0-54.272 24.064-54.272 53.76v0.512zM0 153.6C0 93.696 48.128 45.056 108.544 45.056h217.6c59.904 0 108.544 48.128 108.544 108.544v217.6c0 59.904-48.128 108.544-108.032 108.544H108.544C48.64 480.256 0 432.128 0 372.224V153.6z m530.432 185.856c-42.496-41.984-42.496-110.592-0.512-153.088l0.512-0.512 154.112-154.112c42.496-42.496 111.104-42.496 153.6 0l154.112 154.112c42.496 42.496 42.496 111.104 0 153.6l-154.112 154.112c-42.496 42.496-111.104 42.496-153.6 0l-154.112-154.112z m192.512 115.712c20.992 20.992 55.296 21.504 76.288 0.512l0.512-0.512 154.112-154.112c20.992-20.992 21.504-55.296 0.512-76.288l-0.512-0.512-154.112-154.112c-20.992-20.992-55.296-21.504-76.288-0.512l-0.512 0.512-154.112 154.112c-20.992 20.992-21.504 55.296-0.512 76.288l0.512 0.512 154.112 154.112z m-179.2 242.688c0-59.904 48.128-108.544 108.544-108.544h217.6c59.904 0 108.544 48.128 108.544 108.544v217.6c0 59.904-48.128 108.544-108.032 108.544h-218.112c-59.904 0-108.544-48.128-108.544-108.032v-218.112z m54.272 0v217.6c0 30.208 24.064 54.272 54.272 54.272H870.4c29.696 0 54.272-24.064 54.272-53.76v-218.112c0-29.696-24.064-54.272-53.76-54.272h-218.624c-29.696 0-54.272 24.064-54.272 53.76v0.512zM0 697.856C0 637.44 48.128 588.8 108.544 588.8h217.6c59.904 0 108.544 48.128 108.544 108.544v217.6c0 59.904-48.128 108.544-108.032 108.544H108.544C48.64 1024 0 975.872 0 915.968v-218.112z m54.272 0v217.6c0 30.208 24.064 54.272 54.272 54.272h217.6c29.696 0 54.272-24.064 54.272-53.76v-218.112c0-29.696-24.064-54.272-53.76-54.272H108.544c-29.696 0-54.272 24.064-54.272 53.76v0.512z" p-id="901"></path></svg>