<?xml version="1.0" standalone="no"?><!DOCTYPE svg PUBLIC "-//W3C//DTD SVG 1.1//EN" "http://www.w3.org/Graphics/SVG/1.1/DTD/svg11.dtd"><svg t="1627436508763" class="icon" viewBox="0 0 1374 1024" version="1.1" xmlns="http://www.w3.org/2000/svg" p-id="6300" xmlns:xlink="http://www.w3.org/1999/xlink" width="268.359375" height="200"><defs><style type="text/css">@font-face { font-family: feedback-iconfont; src: url("//at.alicdn.com/t/font_1031158_1uhr8ri0pk5.eot?#iefix") format("embedded-opentype"), url("//at.alicdn.com/t/font_1031158_1uhr8ri0pk5.woff2") format("woff2"), url("//at.alicdn.com/t/font_1031158_1uhr8ri0pk5.woff") format("woff"), url("//at.alicdn.com/t/font_1031158_1uhr8ri0pk5.ttf") format("truetype"), url("//at.alicdn.com/t/font_1031158_1uhr8ri0pk5.svg#iconfont") format("svg"); }
</style></defs><path d="M387.523133 950.887832l-128.708923-36.749426-194.746182-128.465455-34.672783-109.861594L80.838713 537.062937l89.725315-61.046154 54.680168-33.949538 33.570014-13.870546 38.374937-45.492811 41.962517-155.254154 114.265511-108.737342 160.42428-67.311889 188.75972 27.04649 142.787133 69.402853 115.096168 140.703329v110.728056l65.213762 28.915468 104.691468 47.820084L1282.699636 537.062937l45.013035 101.54786-20.730629 103.581539-42.098573 73.019077-84.111217 51.937566-96.148588 19.069315-84.841622 27.920112-38.954965 36.749426z" fill="#839EF8" p-id="6301"></path><path d="M1083.377678 950.816224h-139.063496c-23.702378 0-42.965035-19.262657-42.965035-42.965035s19.262657-42.965035 42.965035-42.965035h139.063496c107.985455 0 195.848951-87.863497 195.848951-195.848951 0-107.985455-87.863497-195.848951-195.848951-195.848951h-7.017622c-23.415944 0-42.535385-18.761399-42.965035-42.177343-3.58042-189.690629-160.832448-344.006713-350.523077-344.006713-189.690629 0-346.871049 154.387692-350.451468 344.078321a42.979357 42.979357 0 0 1-42.965035 42.177343h-7.017623c-107.985455 0-195.848951 87.863497-195.848951 195.848951 0 107.985455 87.863497 195.848951 195.848951 195.848951h127.033287c23.702378 0 42.965035 19.262657 42.965035 42.965035s-19.262657 42.965035-42.965035 42.965035h-127.033287c-155.39021 0-281.779021-126.388811-281.779021-281.779021 0-144.076084 108.701538-263.232448 248.409511-279.845594 10.956084-99.607273 55.568112-191.838881 127.892587-262.946014C459.09572 45.614545 567.72565 1.145734 682.871944 1.145734s223.776224 44.468811 305.911049 125.171469c72.324476 71.107133 116.936503 163.338741 127.892587 262.946014 139.707972 16.541538 248.40951 135.697902 248.409511 279.845594 0.071608 155.318601-126.317203 281.707413-281.707413 281.707413z" fill="#5874CF" p-id="6302"></path><path d="M865.831385 664.239441l-152.7407-151.022098a43.029483 43.029483 0 0 0-60.509091 0.071608l-152.096223 151.022098a42.986517 42.986517 0 1 0 60.580699 61.01035l79.198881-78.626014v323.311888c0 23.702378 19.262657 42.965035 42.965035 42.965035s42.965035-19.262657 42.965035-42.965035v-322.953846l79.270489 78.33958a42.979357 42.979357 0 0 0 60.795525-0.358042 43.050965 43.050965 0 0 0-0.42965-60.795524z" fill="#FFFFFF" p-id="6303"></path></svg>