<svg t="1622627323857" class="icon" viewBox="0 0 1024 1024" version="1.1" xmlns="http://www.w3.org/2000/svg" p-id="1918" width="200" height="200"><path d="M545.943704 175.028148c128.948148 0 233.813333 104.865185 233.813333 233.813333v341.333334l63.146667 10.808889c18.014815 3.034074 31.668148 19.152593 31.668148 37.357037 0 20.48-17.445926 37.925926-37.925926 37.925926h-644.740741c-20.48 0-37.925926-17.445926-37.925926-37.925926 0-18.204444 13.653333-34.133333 31.668148-37.357037l63.146667-10.808889V407.703704c0-128.379259 104.296296-232.675556 232.675556-232.675556h64.474074m0-75.851852H481.659259c-169.718519 0-308.527407 138.808889-308.527407 308.527408v278.376296c-53.665185 9.102222-94.814815 55.940741-94.814815 112.071111 0 62.577778 51.2 113.777778 113.777778 113.777778h644.740741c62.577778 0 113.777778-51.2 113.777777-113.777778 0-56.13037-41.14963-102.968889-94.814814-112.071111V408.841481c-0.18963-170.287407-139.567407-309.665185-309.854815-309.665185z" p-id="1919"></path><path d="M514.275556 167.442963c-31.288889 0-56.888889-25.6-56.888889-56.888889V66.56c0-31.288889 25.6-56.888889 56.888889-56.888889s56.888889 25.6 56.888888 56.888889v43.994074c0 31.288889-25.6 56.888889-56.888888 56.888889zM402.204444 938.856296c15.54963 46.08 58.974815 79.265185 110.364445 79.265185s94.814815-33.185185 110.364444-79.265185H402.204444z" p-id="1920"></path><path d="M702.388148 530.583704c-10.42963 0-18.962963-8.533333-18.962963-18.962963v-114.725926c0-80.402963-67.697778-109.985185-68.266666-110.364445a18.868148 18.868148 0 0 1-10.050371-24.841481c4.171852-9.671111 15.36-14.222222 24.841482-10.05037 3.792593 1.517037 91.401481 40.011852 91.401481 145.256296v114.725926c0 10.619259-8.533333 18.962963-18.962963 18.962963z" p-id="1921"></path></svg>