<svg id="Layer_1" enable-background="new 0 0 512 512" height="512" viewBox="0 0 512 512" width="512" xmlns="http://www.w3.org/2000/svg"><g><g><g><path d="m346.462 512h-233.7c-8.284 0-15-6.716-15-15s6.716-15 15-15h1.566c27.622 0 50.094-22.472 50.094-50.093v-10.193c0-8.284 6.716-15 15-15h100.381c8.284 0 15 6.716 15 15v10.193c0 27.622 22.472 50.093 50.093 50.093h1.566c8.284 0 15 6.716 15 15s-6.715 15-15 15z" fill="#00429d"/></g></g><path d="m346.462 482h-1.566c-27.622 0-50.093-22.472-50.093-50.093v-10.193c0-8.284-6.716-15-15-15h-50.191v105.286h116.85c8.284 0 15-6.716 15-15s-6.715-15-15-15z" fill="#00347b"/><path clip-rule="evenodd" d="m15 111.051h429.225v320.949h-429.225z" fill="#f6efea" fill-rule="evenodd"/><path clip-rule="evenodd" d="m229.613 111.051h214.612v320.949h-214.612z" fill="#eee1dc" fill-rule="evenodd"/><path d="m444.225 447h-429.225c-8.284 0-15-6.716-15-15v-320.949c0-8.284 6.716-15 15-15h429.225c8.284 0 15 6.716 15 15v320.949c0 8.284-6.716 15-15 15zm-414.225-30h399.225v-290.949h-399.225z" fill="#00429d"/><path d="m444.225 96.051h-214.612v30h199.613v290.949h-199.613v30h214.613c8.284 0 15-6.716 15-15v-320.949c-.001-8.284-6.717-15-15.001-15z" fill="#00347b"/><g><path d="m377.85 387h-296.475c-8.284 0-15-6.716-15-15v-294c0-8.284 6.716-15 15-15h296.475c8.284 0 15 6.716 15 15v294c0 8.284-6.716 15-15 15z" fill="#fff4f4"/></g><path d="m377.85 63h-148.237v324h148.237c8.284 0 15-6.716 15-15v-294c0-8.284-6.716-15-15-15z" fill="#f6efea"/><g><path d="m244.526 282.247c-3.854 0-7.629-1.509-10.446-4.327-4.006-4.006-5.368-9.952-3.504-15.302l32.376-92.952c1.672-4.801 5.696-8.404 10.651-9.539 4.956-1.134 10.146.359 13.741 3.954l60.576 60.576c3.595 3.594 5.088 8.785 3.954 13.741-1.135 4.956-4.738 8.979-9.539 10.651l-92.952 32.377c-1.588.551-3.23.821-4.857.821z" fill="#fdbf00"/></g><g><path d="m214.613 153.001h-83c-8.284 0-15-6.716-15-15s6.716-15 15-15h83c8.284 0 15 6.716 15 15s-6.716 15-15 15z" fill="#4793ff"/></g><g><path d="m183.801 213.001h-52.189c-8.284 0-15-6.716-15-15s6.716-15 15-15h52.189c8.284 0 15 6.716 15 15s-6.716 15-15 15z" fill="#4793ff"/></g><g><path d="m171.268 273.001h-39.656c-8.284 0-15-6.716-15-15s6.716-15 15-15h39.656c8.284 0 15 6.716 15 15s-6.716 15-15 15z" fill="#4793ff"/></g><path d="m483.692 88.883-60.575-60.576c-2.77-2.77-6.526-4.326-10.444-4.326-3.917 0-7.674 1.556-10.444 4.326l-136.649 136.731 81.198 81.531 136.914-136.798c5.768-5.768 5.768-15.12 0-20.888z" fill="#00cb75"/><path d="m512 57.552c0-15.42-5.974-29.886-16.82-40.732s-25.312-16.82-40.731-16.82c-15.42 0-29.885 5.973-40.731 16.819l-21.83 21.83 81.463 81.463 21.83-21.829c10.846-10.846 16.819-25.311 16.819-40.731z" fill="#ff435b"/><g><path d="m444.225 447h-429.225c-8.284 0-15-6.716-15-15v-75h459.225v75c0 8.284-6.716 15-15 15z" fill="#4793ff"/></g><path d="m229.613 357v90h214.613c8.284 0 15-6.716 15-15v-75z" fill="#525cdd"/></g></svg>