<svg id="Capa_1" enable-background="new 0 0 497 497" height="512" viewBox="0 0 497 497" width="512" xmlns="http://www.w3.org/2000/svg"><g id="_x3C_Group_x3E__21_"><path d="m497 163.067v-1.081c0-6.548-1.294-19.315-9.959-31.244-9.482-13.053-24.25-20.241-41.583-20.241-16.631 0-30.507 6.363-39.657 17.101-1.5 1.76-4.014 2.245-6.071 1.188-28.267-14.53-59.773-15.416-87.815-2.155-7.914 3.707-15.124 8.385-21.519 13.861-1.76 1.507-4.325 1.651-6.189.274-10.777-7.959-24.415-12.125-38.779-10.715l-53.426 5.274c-11.268 1.112-21.444 5.46-29.667 12.065-1.386 1.113-3.249 1.405-4.911.773-21.147-8.046-45.619-2.585-61.248 14.441-1.722 1.876-4.588 2.161-6.627.636-9.626-7.199-21.264-11.089-33.497-11.089-.055 0-.11 0-.165 0-14.97.042-29.029 5.907-39.581 16.508-2.015 2.024-3.857 4.175-5.517 6.435-7.038 9.576-7.822 21.101-7.787 33.2.043 14.955 7.913 26.998 18.529 37.54 7.572 7.521 15.268 15.628 22.99 24.217.83.923 1.288 2.126 1.284 3.367l-.088 27.736c-.095 30.867 19.968 55.058 50.868 55.157h.179c17.367 0 32.928-7.96 43.221-20.417 2.254-2.728 6.554-2.375 8.24.736 8.596 15.863 24.667 27.11 43.895 28.966l53.397 5.157c1.8.175 3.63.264 5.444.264 11.986-.001 23.108-3.725 32.235-10.125 1.759-1.233 4.09-1.27 5.833-.016 16.746 12.044 36.254 19.836 56.125 21.98 3.549.426 7.141.641 10.685.641h.003c22.706-.002 43.698-8.652 59.738-23.425 1.584-1.459 3.93-1.774 5.8-.706 6.94 3.963 14.97 6.23 23.52 6.23 26.213 0 45.539-18.303 45.539-44.486 0-3.393 1.641-6.704.96-9.897-1.341-6.284-3.932-12.11-7.497-17.21-1.139-1.63-1.232-3.743-.246-5.47 3.463-6.066 5.515-12.998 5.744-20.316z" fill="#f5fcff"/><path d="m490.757 308.603c-5.505 20.142-15.555 36.344-45.938 38.386-7.193.484-13.996-3.171-20.106-7.18-3.666-2.405-8.513-2.166-11.855.673-15.659 13.301-35.574 21.016-57.017 21.018h-.003c-3.544 0-7.136-.216-10.685-.641-18.834-2.032-37.341-9.138-53.479-20.128-3.285-2.237-7.57-2.313-10.94-.207-8.635 5.397-18.845 8.494-29.775 8.495-1.814 0-3.644-.089-5.444-.264l-53.397-5.157c-14.605-1.41-29.84-16.907-38.265-26.924-3.597-4.277-9.989-4.795-14.204-1.124-9.192 8.006-25.595 19.581-42.888 18.763h-.179c-.798-.003-1.591-.022-2.381-.058-18.096-.818-32.568-15.764-32.582-33.878 0-.089 0-.178 0-.267l.107-33.803c.005-1.512-.554-2.979-1.565-4.103-9.41-10.467-18.79-20.348-28.018-29.513-12.936-12.848-20.09-29.962-20.143-48.188-.012-4.171.366-8.282 1.084-12.303-8.5 10.104-13.122 22.746-13.084 36.096.043 14.955 5.913 28.998 16.529 39.54 7.572 7.521 15.268 15.628 22.99 24.217.83.923 1.288 2.126 1.284 3.367l-.088 27.736c-.094 30.546 24.454 55.518 54.911 56.13-.14-.082-.277-.169-.417-.252.458.093.913.193 1.373.279h.179c17.367 0 32.928-7.96 43.221-20.417 2.254-2.728 6.554-2.375 8.24.736 8.596 15.863 24.667 27.11 43.895 28.966l53.397 5.157c1.8.175 3.63.264 5.444.264 11.986-.001 23.108-3.725 32.235-10.125 1.759-1.233 4.09-1.27 5.833-.016 16.746 12.044 36.254 19.836 56.126 21.98 3.549.426 7.141.641 10.685.641h.003c22.706-.002 43.698-8.652 59.739-23.425 1.583-1.458 3.929-1.773 5.798-.706 6.94 3.964 14.97 6.231 23.521 6.231 26.213 0 47.539-21.303 47.539-47.487.001-4.328-.587-8.522-1.68-12.509z" fill="#e6f7fe"/><g><g><path d="m245.077 305.582-36.688-3.547c-1.538-.149-2.711-1.441-2.711-2.986v-26.61c0-1.656 1.341-2.998 2.997-3l31.043-.033c8.075-.009 15.017-6.22 15.39-14.287.399-8.611-6.464-15.714-14.983-15.714-.005 0-.011 0-.016 0l-31.428.034c-1.658.002-3.003-1.342-3.003-3v-26.607c0-1.543 1.17-2.834 2.705-2.985l36.733-3.63c8.039-.794 14.346-7.657 13.927-15.725-.446-8.61-7.977-15.004-16.457-14.171l-51.107 5.05-2.276.225c-7.676.758-7.873 13.873-7.873 21.585v116.89c0 7.725.736 9.005 8.426 9.748l47.426 3.957c.491.048.978.071 1.461.071 7.726 0 19.758-1.237 20.375-9.133.641-8.221-5.733-15.339-13.941-16.132z" fill="#b3e59f"/><g><path d="m257.618 320.484-53.384-5.161c-7.689-.743-13.557-7.205-13.557-14.93v-121.87c0-.025.003-.049.003-.073l-1.479.146c-7.676.759-13.525 7.214-13.525 14.927v121.87c0 7.725 5.867 14.187 13.557 14.93l53.384 5.161c.491.048.978.071 1.461.071 7.726 0 14.321-5.944 14.938-13.84.031-.391.031-.776.03-1.162-.472-.001-.948-.023-1.428-.069z" fill="#95d6a4"/></g><g><g><path d="m348.908 345.963c-1.987 0-3.996-.125-6.022-.378-20.926-2.179-38.707-11.975-52.152-30-4.953-6.641-3.585-16.039 3.055-20.992 1.54-1.148.478-2.128 2.225-2.61 5.787-1.596 12.214.393 16.017 5.494 8.546 11.457 21.271 19.067 34.041 20.357.141.014.28.03.42.048 1.906.247 3.707.188 5.392-.126 7.706-1.433 15.157-7.186 17.234-14.3 3.109-10.658 3.604-27.655-14.17-36-15.402-7.118-40.188-20.597-40.979-21.191-12.383-9.317-20.115-21.035-18.383-37.66 1.547-14.831 6.008-28.367 17.753-37.01 2.812-2.069 5.861-3.884 9.122-5.409 24.596-11.684 46.266-2.11 56.984 4.641 11.989 7.549 14.348 12.435 14.368 18.323.008 2.153-.439 4.202-1.249 6.055-2.308 5.279-12.947 4.974-12.965 4.974-4.33 0-8.233-1.835-10.973-4.773-1.797-1.605-16.305-13.84-32.591-6.105-6.169 2.884-11.343 12.096-13.067 18.32-.326 1.178-.557 2.392-.687 3.635-.584 5.602 1.038 10.612 4.366 13.648 7.317 3.65 20.84 10.308 35.311 16.995 32.791 15.395 40.589 45.72 33.808 68.962-2.274 7.793-5.995 14.631-10.778 20.246-.827.971-1.686 1.905-2.574 2.802-8.878 8.96-20.689 12.053-33.506 12.054z" fill="#b3e59f"/></g></g><g fill="#95d6a4"><path d="m388.866 195.205c-.018 0-.036 0-.054 0-4.33 0-8.233-1.835-10.973-4.773-1.797-1.605-19.098-11.898-36.329-6.591-12.004 3.697-17.837 16.379-18.651 24.192-.001.013 0 .024-.002.036 1.635-6.42 6.076-11.79 12.39-14.743 16.286-7.735 30.794 4.5 32.591 6.105 2.739 2.938 6.643 4.773 10.973 4.773h.054c6.34-.022 11.735-3.981 13.911-9.547-1.248.342-2.554.543-3.91.548z"/><path d="m309.451 249.575c.791.595 1.628 1.103 2.496 1.522l.337.168c7.206 3.602 21.605 10.712 37.008 17.83 17.774 8.345 20.785 22.707 17.676 33.365-2.108 7.222-7.549 14.049-15.446 15.338-.006.008-.013.018-.01.019 10.624 1.376 23.096-10.146 25.457-24.357 1.82-10.952.099-25.02-17.676-33.365-15.402-7.118-29.802-14.228-37.008-17.83l-.337-.168c-.868-.42-1.705-.928-2.496-1.522-12.383-9.317-18.74-24.804-17.008-41.429 1.121-10.75 5.443-20.562 12.199-28.448-12.475 8.619-20.597 22.082-22.199 37.448-1.734 16.625 4.624 32.112 17.007 41.429z"/><path d="m358.873 339.039c-1.987 0-3.996-.125-6.022-.378-20.926-2.179-41.423-14.222-54.867-32.248-3.212-4.306-3.75-9.766-1.933-14.427-1.759.481-3.462 1.279-5.013 2.435-6.64 4.953-8.008 14.352-3.055 20.992 13.444 18.025 33.941 30.069 54.867 32.248 2.026.253 4.035.378 6.022.378 14.154-.001 27.123-6.307 36.219-17.056-7.648 5.175-16.661 8.056-26.218 8.056z"/></g><path d="m138.845 190.376c-6.754-4.398-15.842-2.41-20.562 4.123-8.688 12.025-17.452 23.6-26.186 34.588-1.158 1.457-3.349 1.5-4.588.111-9.205-10.324-18.445-20.103-27.605-29.21-2.653-2.638-6.044-4.079-9.505-4.325-4.434-.315-6.19 1.316-9.438 4.92-5.401 5.992-4.838 15.267.878 20.96 11.723 11.673 22.734 22.961 34.508 36.696.47.548.728 1.249.726 1.971l-.629 41.775c-.026 8.284 5.111 15.361 13.395 15.388.016 0 1.59-.34 1.606-.34 5.357 0 8.627 1.002 11.28-3.228 1.439-2.294 2.275-5.005 2.284-7.913l.139-44.214c.002-.691.241-1.355.681-1.888 12.314-14.934 24.742-31.062 37.008-48.052 4.994-6.916 3.241-16.652-3.992-21.362z" fill="#b3e59f"/><g><path d="m89.01 298.797.125-39.526c.011-3.647-1.315-7.165-3.706-9.92-10.791-12.433-21.65-24.109-32.379-34.793-5.088-5.067-6.08-12.967-2.431-18.869-4.632-.398-9.412 1.341-12.728 5.23-5.128 6.013-4.455 15.05 1.145 20.626 11.727 11.677 23.608 24.538 35.387 38.278.47.548.728 1.249.726 1.971l-.139 44.004c-.026 8.284 6.668 15.021 14.953 15.047h.048c5.364 0 10.061-2.827 12.712-7.067-7.7-.657-13.737-7.116-13.713-14.981z" fill="#95d6a4"/></g></g><path d="m460.908 323.634c0 .827-.057 1.64-.168 2.436-1.186 8.512-13.559 13.388-16.942 13.388-9.665 0-16.596-6.072-16.596-15.738 0-6.691 5.258-16.233 13.77-17.418.796-.111 1.609-.168 2.436-.168 9.665 0 17.5 7.834 17.5 17.5z" fill="#b3e59f"/><g><g><g><path d="m444.055 280.436c-7.691 0-11.916-5.075-11.917-12.766l-7.149-98.553c0-6.729-1.018-22.799 11.948-25.548 1.852-.393 3.922-.608 6.234-.608 17.378 0 21.499 13.809 21.5 21.5l-7.574 104.884c.001 6.776-8.926 11.091-13.042 11.091z" fill="#b3e59f"/></g></g></g><g fill="#95d6a4"><path d="m458.408 326.134c-9.665 0-17.5-7.835-17.5-17.5 0-.791.071-1.564.172-2.327-8.562 1.141-15.172 8.453-15.172 17.327 0 9.665 7.835 17.5 17.5 17.5 8.874 0 16.187-6.611 17.328-15.172-.764.101-1.537.172-2.328.172z"/><path d="m444.246 254.345-7.574-104.884c0-1.747.158-3.81.615-5.955-13.267 2.619-15.615 14.168-15.615 20.955l7.574 104.884c.001 7.691 6.235 13.926 13.926 13.926.914 0 1.808-.088 2.673-.256 6.412-1.246 11.253-6.893 11.253-13.669l.081-1.124c-7.226-.513-12.933-6.521-12.933-13.877z"/></g></g></g></svg>