<?xml version="1.0" standalone="no"?><!DOCTYPE svg PUBLIC "-//W3C//DTD SVG 1.1//EN" "http://www.w3.org/Graphics/SVG/1.1/DTD/svg11.dtd"><svg class="icon" width="128px" height="128.00px" viewBox="0 0 1024 1024" version="1.1" xmlns="http://www.w3.org/2000/svg"><path d="M365.518846 914.059296l41.849992 54.968291L365.518846 1023.99794h-138.896976c0-43.222191 6.411834-79.560725 16.482864-109.938644l73.89062-41.330782z" fill="#FFDCCE" /><path d="M304.177867 969.991835c0-28.921246 5.614476-61.590283 15.831791-94.696115l-3.014304-2.567206-73.89062 41.330782c-10.07103 30.377919-16.482864 66.714393-16.482864 109.938644h84.278945a219.66095 219.66095 0 0 1-6.722948-54.006105z" fill="#FFCABD" /><path d="M365.518846 771.257941l53.008891 71.401708-53.008891 71.401707h-122.414112c36.789753-111.049177 122.414112-142.803415 122.414112-142.803415z" fill="#FFB5EC" /><path d="M658.481154 914.059296l-41.849992 54.968291L658.481154 1023.99794h138.896976c0-43.222191-6.411834-79.560725-16.482864-109.938644l-73.89062-41.330782z" fill="#FFDCCE" /><path d="M658.481154 771.257941l-53.008891 71.401708 53.008891 71.401707h122.414112c-36.789753-111.049177-122.414112-142.803415-122.414112-142.803415z" fill="#FFB5EC" /><path d="M365.518846 771.257941h292.962308V1023.99794h-292.962308z" fill="#9AE0EB" /><path d="M512 794.237114m-82.917048 0a82.917048 82.917048 0 1 0 165.834096 0 82.917048 82.917048 0 1 0-165.834096 0Z" fill="#FFB5EC" /><path d="M702.760308 182.026451c3.411953-13.742588 5.286879-28.42676 5.286879-43.706375C708.047187 61.928181 661.860141 0 604.885061 0c-40.869262 0-76.183798 31.869618-92.885061 78.081388C495.298738 31.869618 459.984201 0 419.114939 0c-56.975081 0-103.162126 61.928181-103.162126 138.320076 0 15.279615 1.874926 29.963787 5.286879 43.706375-105.595409 60.104764-176.09674 168.603218-176.096741 292.474003 0 189.072875 164.247621 321.792898 366.857049 321.792898S878.857049 663.573329 878.857049 474.500454c0-123.870785-70.501331-232.369239-176.096741-292.474003z" fill="#B08BD7" /><path d="M282.772807 349.920906c49.100392-55.759469 133.513261-84.163565 229.227193-84.163565s180.126801 28.404096 229.227193 84.163565v88.679869H282.772807z" fill="#E7886E" /><path d="M468.417247 267.801216c-77.438556 7.417289-144.150889 34.997241-185.64444 82.117629v88.67987h26.724904c18.699809-76.552603 78.816936-139.72318 158.919536-170.797499z" fill="#E27858" /><path d="M786.361396 474.492212c0 80.403412-40.838356 132.217295-75.10005 161.546492-51.053612 43.696073-121.839272 67.763115-199.261346 67.763115s-148.207734-24.067042-199.261346-67.763115c-34.261694-29.329197-75.10005-81.14308-75.10005-161.546492 0-50.602393 16.606486-92.201022 45.134203-124.571306 14.797491 30.254297 45.894475 51.094819 81.862145 51.094818 30.295504 0 57.117245-14.818095 73.682524-37.570628 16.544675 22.752534 43.387019 37.570629 73.682524 37.570628s57.137849-14.818095 73.682524-37.570628c16.565279 22.752534 43.387019 37.570629 73.682524 37.570628 35.96767 0 67.064654-20.840521 81.862145-51.094818 28.527717 32.370285 45.134203 73.968914 45.134203 124.571306z" fill="#FFDCCE" /><path d="M365.512665 533.603884a15.452685 15.452685 0 0 1-15.452685-15.452685v-28.148611c0-8.536063 6.918682-15.452685 15.452685-15.452686s15.452685 6.916622 15.452685 15.452686v28.148611a15.452685 15.452685 0 0 1-15.452685 15.452685zM658.487335 533.603884a15.452685 15.452685 0 0 1-15.452685-15.452685v-28.148611c0-8.536063 6.918682-15.452685 15.452685-15.452686s15.452685 6.916622 15.452685 15.452686v28.148611a15.452685 15.452685 0 0 1-15.452685 15.452685zM512 550.358716a66.673186 66.673186 0 0 1-50.270676-22.896759 15.448564 15.448564 0 0 1 1.499941-21.800648 15.452685 15.452685 0 0 1 21.802709 1.49994 35.771936 35.771936 0 0 0 26.970086 12.294157c10.330635 0 20.162664-4.481279 26.970087-12.296217a15.452685 15.452685 0 0 1 23.300589 20.304828 66.681427 66.681427 0 0 1-50.272736 22.894699zM407.368838 143.209305a15.452685 15.452685 0 0 1-15.452685-15.452685V101.484995c0-8.536063 6.918682-15.452685 15.452685-15.452685s15.452685 6.916622 15.452685 15.452685v26.271625a15.452685 15.452685 0 0 1-15.452685 15.452685zM616.631162 143.209305a15.452685 15.452685 0 0 1-15.452685-15.452685V101.484995c0-8.536063 6.918682-15.452685 15.452685-15.452685s15.452685 6.916622 15.452685 15.452685v26.271625a15.452685 15.452685 0 0 1-15.452685 15.452685zM512 200.854002a66.681427 66.681427 0 0 1-50.270676-22.892638 15.452685 15.452685 0 0 1 23.298529-20.304828c6.809483 7.812878 16.639451 12.294156 26.972147 12.294156s20.162664-4.481279 26.972147-12.294156a15.452685 15.452685 0 1 1 23.298529 20.304828A66.683488 66.683488 0 0 1 512 200.854002z" fill="#423E4F" /><path d="M303.376388 489.363877c0-34.391496 8.22907-67.103801 23.030682-96.739991a91.397482 91.397482 0 0 1-43.634263-42.705041c-28.527717 32.370285-45.134203 73.970974-45.134203 124.571307 0 80.403412 40.838356 132.217295 75.10005 161.546492 33.454033 28.632796 75.382319 48.836666 122.096817 59.363035-78.907592-42.748308-131.459084-119.033064-131.459083-206.035802z" fill="#FFCABD" /><path d="M366.662345 772.797029l-1.143499-1.541148s-85.624359 31.754238-122.414112 142.803415h67.023447c9.32518-46.792791 29.195273-97.248899 56.534164-141.262267z" fill="#FFA2E7" /></svg>