<?xml version="1.0" standalone="no"?><!DOCTYPE svg PUBLIC "-//W3C//DTD SVG 1.1//EN" "http://www.w3.org/Graphics/SVG/1.1/DTD/svg11.dtd"><svg class="icon" width="128px" height="128.00px" viewBox="0 0 1024 1024" version="1.1" xmlns="http://www.w3.org/2000/svg"><path d="M278.039694 805.850913S158.561352 863.767694 158.561352 1024h190.657674l50.763203-48.663694v-169.485393zM745.962366 805.850913s119.478342 57.916781 119.478342 218.149087h-190.657674l-50.763203-48.663694v-169.485393z" fill="#FCCB88" /><path d="M624.019831 626.273867v347.224596L584.605103 1024h-145.208145l-39.414729-50.501537V626.273867z" fill="#FF889E" /><path d="M205.156443 626.273867s-68.77695 147.153127 90.651815 227.340362c32.570205 16.38194 53.410769 49.415726 53.410768 85.873835V1024h90.179992V626.273867z" fill="#FBE29F" /><path d="M69.607276 442.392724C69.607276 198.458205 268.063421 0 512 0s442.392724 198.456145 442.392724 442.392724z" fill="#5C586F" /><path d="M818.845618 626.273867s68.77695 147.153127-90.651815 227.340362c-32.570205 16.38194-53.410769 49.415726-53.410769 85.873835V1024h-90.179992V626.273867z" fill="#FBE29F" /><path d="M873.877891 458.828233m-101.567613 0a101.567614 101.567614 0 1 0 203.135227 0 101.567614 101.567614 0 1 0-203.135227 0Z" fill="#C7856A" /><path d="M237.605087 413.477602c0-192.676829 115.380282-356.100636 275.274688-413.46524-0.294632-0.00206-0.585143-0.012362-0.879775-0.012362C268.063421 0 69.607276 198.456145 69.607276 442.392724h168.900249c-0.578962-9.56008-0.902439-19.196394-0.902438-28.915122z" fill="#4F4C5F" /><path d="M857.823549 338.346495c-5.723686-19.915461-25.929658-31.980942-46.19744-27.672724-237.815243 50.565408-404.290447-74.887984-477.130431-146.706029-14.607968-14.403992-37.681964-15.217835-53.406648-2.043879-79.801948 66.858753-130.169561 167.692877-128.840628 280.250463 2.33233 197.568129 162.171107 355.433078 359.753658 355.433078 198.699268 0 359.776322-161.079115 359.776322-359.778382 0-34.513127-4.872757-67.888934-13.954833-99.482527z" fill="#DA9D81" /><path d="M269.14099 971.932588c-15.53101-4.376209-24.571879-20.510905-20.19773-36.041916 17.92103-63.619863 69.63406-100.143903 71.826285-101.666511 13.248129-9.207759 31.453489-5.929722 40.659187 7.320467 9.180974 13.213103 5.948266 31.354592-7.211267 40.585014-0.799421 0.572781-37.002044 26.879485-49.03868 69.605215-4.374149 15.53307-20.510905 24.571879-36.037795 20.197731zM754.863131 971.932588c15.53101-4.376209 24.571879-20.510905 20.19773-36.041916-17.92103-63.619863-69.63406-100.143903-71.826286-101.666511-13.248129-9.207759-31.453489-5.929722-40.659187 7.320467-9.180974 13.213103-5.948266 31.354592 7.211268 40.585014 0.799421 0.572781 37.002044 26.879485 49.03868 69.605215 4.374149 15.53307 20.510905 24.571879 36.037795 20.197731z" fill="#FF889E" /><path d="M437.039903 789.823356c-119.274366-75.483429-199.434817-215.750825-199.434816-376.345754 0-97.27794 29.415791-187.097368 79.113786-259.58297a39.781473 39.781473 0 0 0-35.629843 8.029231c-59.231292 49.621763-102.220748 117.974278-119.919259 195.934262a102.956298 102.956298 0 0 0-11.047662-0.599566c-56.095421 0-101.567614 45.474254-101.567614 101.567614s45.474254 101.567614 101.567614 101.567614c7.726358 0 15.24462-0.881835 22.47443-2.521884 41.1887 117.113046 141.044153 205.978527 264.443364 231.951453z" fill="#C7856A" /><path d="M228.106817 503.119839a76.51773 60.935211 0 1 0 153.035461 0 76.51773 60.935211 0 1 0-153.035461 0Z" fill="#FFFFFF" /><path d="M642.857722 503.119839a76.51773 60.935211 0 1 0 153.035461 0 76.51773 60.935211 0 1 0-153.035461 0Z" fill="#FFFFFF" /><path d="M349.219026 459.914044a15.452716 15.452716 0 0 1-15.452716-15.452716v-31.280419c0-8.53608 6.918696-15.452716 15.452716-15.452716s15.452716 6.916636 15.452716 15.452716v31.280419a15.452716 15.452716 0 0 1-15.452716 15.452716zM674.780974 459.914044a15.452716 15.452716 0 0 1-15.452716-15.452716v-31.280419c0-8.53608 6.918696-15.452716 15.452716-15.452716s15.452716 6.916636 15.452716 15.452716v31.280419a15.452716 15.452716 0 0 1-15.452716 15.452716zM512 478.533537a72.368161 72.368161 0 0 1-54.564571-24.852088 15.452716 15.452716 0 0 1 23.300635-20.30487c7.893247 9.057352 19.28705 14.251525 31.265996 14.251526s23.374809-5.194173 31.265996-14.251526a15.452716 15.452716 0 0 1 23.300636 20.30487 72.380523 72.380523 0 0 1-54.568692 24.852088z" fill="#423E4F" /></svg>