<?xml version="1.0" standalone="no"?><!DOCTYPE svg PUBLIC "-//W3C//DTD SVG 1.1//EN" "http://www.w3.org/Graphics/SVG/1.1/DTD/svg11.dtd"><svg class="icon" width="128px" height="128.00px" viewBox="0 0 1024 1024" version="1.1" xmlns="http://www.w3.org/2000/svg"><path d="M642.029457 1024H381.970543l-93.659943-105.476121c28.779139-88.984982 86.625867-127.528177 86.625867-127.528177h274.131187s57.846728 38.543195 86.625867 127.528177z" fill="#FFB5EC" /><path d="M512 814.065577m-87.631324 0a87.631324 87.631324 0 1 0 175.262648 0 87.631324 87.631324 0 1 0-175.262648 0Z" fill="#DA9D81" /><path d="M422.998535 790.995702h-48.064129s-57.846728 38.543195-86.625867 127.526117l40.304805 45.389779c0.640773-73.146978 38.234141-137.143887 94.385191-172.915896z" fill="#FFA2E7" /><path d="M689.224113 106.127195v-17.515139C689.224113 39.672274 649.551839 0 600.612056 0 551.672274 0 512 39.672274 512 88.612056 512 39.672274 472.327726 0 423.387944 0c-48.939783 0-88.612056 39.672274-88.612057 88.612056v17.515139c0 31.731638-17.078342 61.091799-44.812877 76.509489-95.073352 52.85241-156.927485 144.565312-156.927485 270.925264 0 209.29571 169.668765 360.50363 378.964475 360.503629s378.964475-151.20792 378.964475-360.503629c0-126.359952-61.854133-218.072853-156.927485-270.925264-27.734535-15.41769-44.812877-44.777851-44.812877-76.509489z" fill="#50E1CD" /><path d="M343.590117 680.966181c-64.594414-34.789215-108.572845-103.075799-108.572845-181.456096 0-67.631388 32.759759-127.752757 83.240692-165.331703l125.352434-40.67773h136.779204l125.352434 40.67773c50.480934 37.578946 83.240692 97.702374 83.240692 165.331703 0 78.378237-43.978431 146.666881-108.572845 181.456096l-130.78973 24.553336h-75.240306z" fill="#DA9D81" /><path d="M358.845038 513.4814a15.452716 15.452716 0 0 1-15.452716-15.452716v-29.430213c0-8.53608 6.918696-15.452716 15.452716-15.452716s15.452716 6.916636 15.452717 15.452716v29.430213a15.452716 15.452716 0 0 1-15.452717 15.452716zM665.154962 513.4814a15.452716 15.452716 0 0 1-15.452717-15.452716v-29.430213c0-8.53608 6.918696-15.452716 15.452717-15.452716s15.452716 6.916636 15.452716 15.452716v29.430213a15.452716 15.452716 0 0 1-15.452716 15.452716zM512 531.00066a69.00565 69.00565 0 0 1-52.028266-23.694165 15.452716 15.452716 0 0 1 23.300636-20.304869c7.252475 8.321803 17.723235 13.093602 28.72969 13.093601s21.477215-4.771799 28.729691-13.093601a15.452716 15.452716 0 0 1 23.300635 20.304869 69.026254 69.026254 0 0 1-52.032386 23.694165z" fill="#423E4F" /><path d="M443.610398 293.500652l-28.964571 85.927404c-13.087421 38.850189-68.062004 38.850189-81.147364 0l-15.240499-45.251734c34.296789-25.558793 76.8-40.67773 122.76874-40.67773h2.583694zM705.742036 334.178382l-15.240499 45.251735c-13.087421 38.850189-68.062004 38.850189-81.147364 0l-28.964571-85.927405h2.583694c45.96874-0.00206 88.471952 15.116877 122.76874 40.67567zM474.379847 705.519517h-33.353143c-35.219831 0-68.410205-8.882221-97.434527-24.553336l20.675734-61.374068c13.087421-38.850189 68.062004-38.850189 81.147365 0zM680.409883 680.966181c-29.026382 15.671115-62.214696 24.553336-97.434527 24.553336H549.622213l28.964572-85.927404c13.087421-38.850189 68.062004-38.850189 81.147364 0z" fill="#FFFFFF" /><path d="M563.506994 142.572942c-20.688097 0-39.214873 9.430278-51.509054 24.219557-12.292121-14.78928-30.818897-24.219557-51.506994-24.219557-36.92169 0-66.95971 30.03802-66.959711 66.95971 0 8.53608 6.918696 15.452716 15.452717 15.452716s15.452716-6.916636 15.452716-15.452716c0-19.880435 16.173843-36.054278 36.054278-36.054278s36.056338 16.171783 36.056338 36.054278c0 8.53608 6.918696 15.452716 15.452716 15.452716s15.452716-6.916636 15.452716-15.452716c0-19.880435 16.173843-36.054278 36.056338-36.054278 19.880435 0 36.054278 16.173843 36.054278 36.054278 0 8.53608 6.918696 15.452716 15.452716 15.452716s15.452716-6.916636 15.452717-15.452716c-0.00206-36.92169-30.04008-66.95971-66.961771-66.95971z" fill="#00D1B3" /><path d="M423.387944 122.832612a15.452716 15.452716 0 0 0 15.452716-15.452717V77.947622c0-8.53608-6.918696-15.452716-15.452716-15.452717s-15.452716 6.916636-15.452717 15.452717v29.430213a15.452716 15.452716 0 0 0 15.452717 15.454777z" fill="#423E4F" /><path d="M460.493006 193.853296a15.452716 15.452716 0 0 0-15.452716 15.452716v17.12367c0 8.53608 6.918696 15.452716 15.452716 15.452716s15.452716-6.916636 15.452716-15.452716v-17.12367a15.452716 15.452716 0 0 0-15.452716-15.452716zM563.506994 193.853296a15.452716 15.452716 0 0 0-15.452716 15.452716v17.12367c0 8.53608 6.918696 15.452716 15.452716 15.452716s15.452716-6.916636 15.452716-15.452716v-17.12367a15.452716 15.452716 0 0 0-15.452716-15.452716z" fill="#00D1B3" /><path d="M600.612056 122.832612a15.452716 15.452716 0 0 0 15.452717-15.452717V77.947622c0-8.53608-6.918696-15.452716-15.452717-15.452717s-15.452716 6.916636-15.452716 15.452717v29.430213a15.452716 15.452716 0 0 0 15.452716 15.454777z" fill="#423E4F" /><path d="M381.970543 918.523879V1024h-109.557698c0-40.984724 6.358278-75.998519 15.897755-105.476121zM751.589215 1024H642.029457v-105.476121h93.659943c9.539477 29.475541 15.899815 64.491396 15.899815 105.476121z" fill="#DA9D81" /><path d="M283.742777 479.633771c0-52.287871 12.821634-101.763348 35.656627-145.826254l-1.143501 0.370865c-50.480934 37.578946-83.240692 97.702374-83.240692 165.331703 0 75.506093 40.824016 141.633416 101.565554 177.483718-34.539911-55.291879-52.837988-123.520773-52.837988-197.360032zM328.59068 965.80507c0-16.274801 1.837843-32.102503 5.297191-47.283251h-45.579332c-9.539477 29.477602-15.897755 64.491396-15.897754 105.476121h64.277118a211.980362 211.980362 0 0 1-8.097223-58.19287z" fill="#C7856A" /></svg>