<?xml version="1.0" standalone="no"?><!DOCTYPE svg PUBLIC "-//W3C//DTD SVG 1.1//EN" "http://www.w3.org/Graphics/SVG/1.1/DTD/svg11.dtd"><svg class="icon" width="128px" height="128.00px" viewBox="0 0 1024 1024" version="1.1" xmlns="http://www.w3.org/2000/svg"><path d="M871.778382 262.391243L512 355.509312 152.221618 262.391243a411.227686 411.227686 0 0 1 47.627332-69.034495c21.827477-25.620604 30.796233-60.166696 22.810269-92.84816a100.603364 100.603364 0 0 0-1.283605-4.83567c-3.912628-13.241948 6.220233-26.401481 20.022599-26.040918 29.170608 0.762334 69.737078 7.90561 83.640403 39.863887 0 0 2.126294-29.813441-6.339735-58.903694-4.032129-13.923928 7.724298-27.446085 22.089143-25.620603 33.042028 4.15369 79.849336 16.431388 93.490994 52.203396 0 0 13.802366-40.947638 49.755686-67.890994 16.511742-12.378656 39.42297-12.378656 55.934712 0 35.95126 26.943356 49.755686 67.890994 49.755687 67.890994 13.641658-35.772008 60.448966-48.049706 93.490994-52.203396 14.364845-1.825481 26.121272 11.696676 22.089142 25.620603-8.466028 29.090254-6.339734 58.903694-6.339734 58.903694 13.903324-31.960338 54.469795-39.101553 83.640402-39.863887 13.802366-0.360563 23.935227 12.79897 20.0226 26.040918a100.603364 100.603364 0 0 0-1.283606 4.83567c-7.983903 32.681465 0.982793 67.229618 22.81027 92.84816a411.328644 411.328644 0 0 1 47.623211 69.034495z" fill="#FCCB88" /><path d="M387.317183 1023.995879l-130.952499 0.004121c0-71.490447 19.043928-126.959517 41.687308-167.64961h104.660217zM636.682817 1023.995879l130.952499 0.004121c0-71.490447-19.043928-126.959517-41.687308-167.64961h-104.660217z" fill="#5C586F" /><path d="M567.893505 768.826205l39.155123 127.587928L567.893505 1024h-111.78701l-40.990905-127.585867 40.990905-127.587928z" fill="#D8D8D8" /><path d="M922.05534 459.003364H101.94466c0-71.201996 18.236266-138.209095 50.276958-196.612121h308.164249l51.614133 41.452427 66.992676-41.452427H871.780443c32.038632 58.400966 50.274897 125.410125 50.274897 196.612121z" fill="#5C586F" /><path d="M763.318857 687.169932c72.621586 123.50635-126.63604 210.929577-126.63604 336.825947h-68.791372V687.169932zM260.681143 687.169932c-72.623646 123.50635 126.63604 210.929577 126.63604 336.825947h68.791372V687.169932z" fill="#64D1E1" /><path d="M851.846439 479.056869m-95.961369 0a95.961368 95.961368 0 1 0 191.922737 0 95.961368 95.961368 0 1 0-191.922737 0Z" fill="#FFCABD" /><path d="M413.007839 49.912274c-20.469698-15.425932-49.576435-22.093264-72.221875-24.938624-14.364845-1.825481-26.121272 11.696676-22.089143 25.620604 8.466028 29.090254 6.339734 58.903694 6.339734 58.903694-13.903324-31.960338-54.469795-39.101553-83.640402-39.863888-13.802366-0.360563-23.935227 12.79897-20.0226 26.040918 0.461521 1.605022 0.902439 3.210044 1.283606 4.83567 7.983903 32.681465-0.982793 67.227557-22.81027 92.848161a411.108185 411.108185 0 0 0-47.627332 69.034495l116.90495 30.256418c22.87208-102.336129 74.9807-188.628217 143.883332-242.737448z" fill="#FBC072" /><path d="M256.364684 409.622664c0-51.801626 7.260716-101.404845 20.508845-147.231421h-124.651911c-32.038632 58.400966-50.276958 125.410125-50.276958 196.612121h156.663759a548.214986 548.214986 0 0 1-2.243735-49.3807z" fill="#4F4C5F" /><path d="M816.945964 308.835928c-27.909666-56.556942-86.918439-90.975292-149.78833-85.952129-43.187252 3.451107-91.30495 16.855823-132.769739 51.614133a34.787155 34.787155 0 0 1-44.777851 0c-41.456547-34.752129-89.566004-48.158905-132.747074-51.612073-62.027203-4.961352-120.856724 28.261988-148.774632 83.873223-23.053392 45.921352-36.004829 97.788909-35.934777 152.693441 0.243123 185.789038 151.603509 338.068346 337.388427 339.380797 188.819831 1.335115 342.30239-151.327421 342.30239-339.836137 0.00206-53.911437-12.555847-104.882736-34.898414-150.161255z" fill="#FFDCCE" /><path d="M446.935823 792.532732c-112.417481-66.207678-190.571139-212.750938-190.571139-382.910068 0-62.624708 10.600563-122.039372 29.584741-175.439839a152.977771 152.977771 0 0 0-77.861087 72.576257 337.40903 337.40903 0 0 0-27.481111 76.744371 90.474624 90.474624 0 0 0-8.453666-0.405892c-52.998696 0-95.961368 42.962672-95.961368 95.961369s42.962672 95.961368 95.961368 95.961368c7.124732 0 13.678744-0.799421 19.717666-2.27464 39.923638 111.508861 136.70297 196.616241 255.064596 219.787074z" fill="#FFCABD" /><path d="M233.638889 514.804153a75.026028 59.748443 0 1 0 150.052057 0 75.026028 59.748443 0 1 0-150.052057 0Z" fill="#FF9DB0" /><path d="M640.309054 514.804153a75.026028 59.748443 0 1 0 150.052057 0 75.026028 59.748443 0 1 0-150.052057 0Z" fill="#FF9DB0" /><path d="M352.389924 472.74392a15.452716 15.452716 0 0 1-15.452717-15.452717V426.618592c0-8.53608 6.918696-15.452716 15.452717-15.452717s15.452716 6.916636 15.452716 15.452717v30.672611a15.452716 15.452716 0 0 1-15.452716 15.452717zM671.610076 472.74392a15.452716 15.452716 0 0 1-15.452716-15.452717V426.618592c0-8.53608 6.918696-15.452716 15.452716-15.452717s15.452716 6.916636 15.452717 15.452717v30.672611a15.452716 15.452716 0 0 1-15.452717 15.452717zM512 491.000789a71.267928 71.267928 0 0 1-53.730125-24.470922 15.452716 15.452716 0 1 1 23.298576-20.304869c7.683091 8.814229 18.77402 13.870358 30.431549 13.870358s22.748459-5.056129 30.431549-13.870358a15.452716 15.452716 0 0 1 23.300636 20.304869 71.272048 71.272048 0 0 1-53.732185 24.470922z" fill="#423E4F" /></svg>