<?xml version="1.0" standalone="no"?><!DOCTYPE svg PUBLIC "-//W3C//DTD SVG 1.1//EN" "http://www.w3.org/Graphics/SVG/1.1/DTD/svg11.dtd"><svg class="icon" width="128px" height="128.00px" viewBox="0 0 1024 1024" version="1.1" xmlns="http://www.w3.org/2000/svg"><path d="M512 735.240241l40.438728 149.681192L512 1024H222.704547c0-199.484266 131.039034-288.759759 131.039034-288.759759z" fill="#9AE0EB" /><path d="M801.295453 1024H512V735.240241h158.256419s131.039034 89.275493 131.039034 288.759759z" fill="#64D1E1" /><path d="M445.718149 5.707203c-180.817384 31.39992-318.325956 189.079437-318.325956 378.900604 0 212.402736 172.20507 384.587203 384.607807 384.587203s384.607807-172.184467 384.607807-384.587203c0-189.821167-137.508571-347.500684-318.325956-378.900604L512 36.198503z" fill="#FF889E" /><path d="M277.16404 346.023404c0-142.323638 66.547638-267.527726 167.266383-340.079259C264.251751 37.869457 127.392193 195.23992 127.392193 384.607807c0 185.407871 131.220346 340.159614 305.850463 376.500282-103.669183-85.080596-156.078616-255.480789-156.078616-415.084685z" fill="#FF748F" /><path d="M222.127646 418.912837c17.018592 144.822857 140.537304 257.565875 289.872354 257.565875 160.934889 0 291.891509-130.936016 291.891509-291.870905l-114.135823-58.285586H314.155783z" fill="#FED2A4" /><path d="M620.951952 150.385835l-73.925795 66.302455c-19.923702 17.86334-50.128612 17.86334-70.052314 0l-73.925795-66.302455c-13.330543-11.970704-4.862455-34.07839 13.042093-34.07839h29.628008V5.707203C467.248934 1.957344 489.397827 0 512 0s44.751066 1.957344 66.281851 5.707203v110.600242h29.628008c17.904547 0 26.372636 22.107686 13.042093 34.07839z" fill="#D8D8D8" /><path d="M277.386559 363.316024l-55.258913 55.596813c9.057352 77.069907 48.278406 145.053618 105.496724 191.794994-31.434946-74.910648-48.231018-162.185529-50.237811-247.391807z" fill="#FFBD86" /><path d="M803.891509 384.607807c0-0.350262-0.020604-0.700523-0.020604-1.030181-0.185433-53.342777-43.968129-96.280724-97.310905-96.280725H317.44c-53.342777 0-97.125473 42.937948-97.310905 96.280725 0 0.329658-0.020604 0.67992-0.020604 1.030181 0 11.599839 0.67992 23.055453 2.019155 34.30503 29.360161-7.355493 81.095855-25.589698 123.498109-68.218592 0 0 79.923509 74.339928 226.027911 74.387316 13.528338 0.004121 21.199066-15.337336 13.219284-26.261376-9.154189-12.531123-17.449207-29.12734-17.449208-48.12594 0 0 109.7967 46.069698 236.467767 33.913562z" fill="#5C586F" /><path d="M358.616338 518.189328a15.452716 15.452716 0 0 1-15.452716-15.452716V473.265191c0-8.53608 6.918696-15.452716 15.452716-15.452716s15.452716 6.916636 15.452716 15.452716v29.473481a15.452716 15.452716 0 0 1-15.452716 15.450656zM665.383662 518.189328a15.452716 15.452716 0 0 1-15.452716-15.452716V473.265191c0-8.53608 6.918696-15.452716 15.452716-15.452716s15.452716 6.916636 15.452716 15.452716v29.473481a15.452716 15.452716 0 0 1-15.452716 15.450656zM512 535.735372a69.077763 69.077763 0 0 1-52.088016-23.72301 15.452716 15.452716 0 0 1 23.300636-20.304869c7.266897 8.340346 17.760322 13.122447 28.78944 13.122447s21.522543-4.782101 28.789441-13.122447a15.452716 15.452716 0 0 1 23.300636 20.304869A69.092185 69.092185 0 0 1 512 535.735372z" fill="#423E4F" /><path d="M608.453795 886.804604c-9.976274-70.841433-36.662085-123.343581-36.929932-123.864853-7.79435-15.160145-1.852266-33.79406 13.295517-41.615196 15.145722-7.823195 33.752853-1.924378 41.600773 13.208982 1.289787 2.488918 31.721336 61.858254 43.23876 143.652572 2.379718 16.901151-9.393191 32.533119-26.294342 34.912837-16.932056 2.379718-32.533119-9.417915-34.910776-26.294342zM415.546205 886.804604c9.976274-70.841433 36.662085-123.343581 36.929932-123.864853 7.79435-15.160145 1.852266-33.79406-13.295517-41.615196-15.145722-7.823195-33.752853-1.924378-41.600773 13.208982-1.289787 2.488918-31.721336 61.858254-43.23876 143.652572-2.379718 16.901151 9.393191 32.533119 26.294342 34.912837 16.932056 2.379718 32.533119-9.417915 34.910776-26.294342z" fill="#FFFFFF" /><path d="M687.790101 1024v-81.013441c0-8.53608 6.918696-15.452716 15.452716-15.452716s15.452716 6.916636 15.452716 15.452716V1024z" fill="#3CCADD" /><path d="M305.304467 1024v-81.013441c0-8.53608 6.918696-15.452716 15.452716-15.452716s15.452716 6.916636 15.452716 15.452716V1024z" fill="#64D1E1" /><path d="M277.16404 346.023404c0-17.381215 0.997215-34.506946 2.923654-51.313319-34.999372 14.498769-59.818495 48.733746-59.958599 88.867541 0 0.329658-0.020604 0.67992-0.020604 1.030181 0 11.599839 0.67992 23.055453 2.019155 34.30503a288.13959 288.13959 0 0 0 56.876298-20.892072 742.035316 742.035316 0 0 1-1.839904-51.997361z" fill="#4F4C5F" /></svg>