<?xml version="1.0" standalone="no"?><!DOCTYPE svg PUBLIC "-//W3C//DTD SVG 1.1//EN" "http://www.w3.org/Graphics/SVG/1.1/DTD/svg11.dtd"><svg class="icon" width="128px" height="128.00px" viewBox="0 0 1024 1024" version="1.1" xmlns="http://www.w3.org/2000/svg"><path d="M657.381215 758.703646s70.791984 48.224837 103.790745 153.3713L659.594044 1024H364.408016l-101.579976-111.925054c32.998761-105.146463 103.790744-153.3713 103.790745-153.3713z" fill="#BC9BDD" /><path d="M383.917586 693.849626l66.182953 148.848805c23.844571 53.627107 99.95435 53.627107 123.798922 0l66.182953-148.848805z" fill="#C7856A" /><path d="M411.040193 758.703646h-44.423469s-70.791984 48.224837-103.790744 153.369239l39.82474 43.881594a351.953127 351.953127 0 0 1 108.389473-197.250833z" fill="#B08BD7" /><path d="M865.319147 436.590744c0 143.296129-85.33196 266.69328-207.935871 322.114962-44.345175 20.045264-93.548684 31.204185-145.381216 31.204185s-101.038101-11.158922-145.381215-31.204185C244.012813 703.284024 158.682913 579.886873 158.682913 436.590744c0-195.149264 158.188427-353.339751 353.317087-353.33975S865.319147 241.439421 865.319147 436.590744z" fill="#DA9D81" /><path d="M950.282302 599.38408c12.226189-21.604958 12.226189-48.039404 0-69.644362s-12.226189-48.039404 0-69.644362 12.226189-48.039404 0-69.644362l-19.705304-34.822181-91.352338-52.483606-107.260394 52.483606 19.705303 34.822181a70.703388 70.703388 0 0 1 0 69.644362 70.703388 70.703388 0 0 0 0 69.644362 70.703388 70.703388 0 0 1 0 69.644362 70.703388 70.703388 0 0 0 0 69.644363 70.703388 70.703388 0 0 1 0 69.644362c-8.801867 15.553674 2.435348 34.822181 20.30487 34.822181h118.588265a68.616241 68.616241 0 0 0 59.717537-34.822181 70.703388 70.703388 0 0 0 0-69.644362 70.709569 70.709569 0 0 1 0.002061-69.644363zM73.717698 599.38408c-12.226189-21.604958-12.226189-48.039404 0-69.644362s12.226189-48.039404 0-69.644362-12.226189-48.039404 0-69.644362l19.705304-34.822181 91.352338-52.483606 107.260394 52.483606-19.705303 34.822181a70.703388 70.703388 0 0 0 0 69.644362 70.703388 70.703388 0 0 1 0 69.644362 70.703388 70.703388 0 0 0 0 69.644362 70.703388 70.703388 0 0 1 0 69.644363 70.703388 70.703388 0 0 0 0 69.644362c8.801867 15.553674-2.435348 34.822181-20.30487 34.822181H133.435235a68.616241 68.616241 0 0 1-59.717537-34.822181c-12.226189-21.604958-12.226189-48.039404 0-69.644362s12.226189-48.039404 0-69.644363z" fill="#FBE29F" /><path d="M364.408016 912.074946V1024h-118.182374c0-42.738093 6.549891-79.950294 16.602398-111.925054zM777.776419 1024h-118.182375v-111.925054h101.579976c10.052507 31.974761 16.602398 69.186962 16.602399 111.925054z" fill="#DA9D81" /><path d="M149.248515 521.582744c0-76.435316 14.799581-149.252636 41.561626-215.485038l-6.034801-2.954559-91.352338 52.483606-19.705304 34.822181c-12.226189 21.604958-12.226189 48.039404 0 69.644362s12.226189 48.039404 0 69.644362-12.226189 48.039404 0 69.644362 12.226189 48.039404 0 69.644362-12.226189 48.039404 0 69.644362a68.618302 68.618302 0 0 0 59.717537 34.822182h73.620862c-36.956716-75.565843-57.807581-161.190374-57.807582-251.910182z" fill="#FCCB88" /><path d="M512 10.248241C139.426769-35.751404 133.111759 84.380072 153.239437 147.320016c7.705755 24.095936 5.033465 50.270777-7.899429 72.013779-24.648113 41.440064-42.476427 87.388201-51.917006 136.290897h837.153996C892.647791 159.127952 717.834302 35.660748 512 10.248241z" fill="#FFB5EC" /><path d="M548.633239 170.692765h-73.264418c-28.989296 0-52.489787 23.500491-52.489787 52.489786 0 28.989296 23.500491 52.489787 52.489787 52.489787h73.264418c28.989296 0 52.489787-23.500491 52.489787-52.489787 0-28.987235-23.500491-52.489787-52.489787-52.489786z" fill="#FFFFFF" /><path d="M347.36264 517.839066a15.452716 15.452716 0 0 1-15.452716-15.452716V470.751549c0-8.53608 6.918696-15.452716 15.452716-15.452716s15.452716 6.916636 15.452716 15.452716v31.634801a15.452716 15.452716 0 0 1-15.452716 15.452716zM676.63736 517.839066a15.452716 15.452716 0 0 1-15.452716-15.452716V470.751549c0-8.53608 6.918696-15.452716 15.452716-15.452716s15.452716 6.916636 15.452716 15.452716v31.634801a15.452716 15.452716 0 0 1-15.452716 15.452716zM512 536.670777a73.019235 73.019235 0 0 1-55.054938-25.074608 15.452716 15.452716 0 0 1 23.300636-20.304869c8.016869 9.199517 19.589924 14.474044 31.756362 14.474044s23.739493-5.276588 31.756363-14.474044a15.452716 15.452716 0 0 1 23.300635 20.304869 73.029537 73.029537 0 0 1-55.059058 25.074608z" fill="#423E4F" /><path d="M482.897384 6.914575c-343.773489-36.272676-349.247871 79.148813-329.657947 140.405441 7.705755 24.095936 5.033465 50.270777-7.899429 72.013779-24.646052 41.440064-42.476427 87.388201-51.917006 136.290897h80.016225C221.18606 196.375179 335.822551 68.123815 482.897384 6.914575z" fill="#FFA2E7" /><path d="M297.07332 1018.968596c0-37.276072 5.756652-73.186125 16.384-106.895711h-50.63134c-10.054567 31.976821-16.602398 69.186962-16.602399 111.925055h50.91361c-0.022664-1.675074-0.063871-3.348089-0.063871-5.029344z" fill="#C7856A" /></svg>