<?xml version="1.0" standalone="no"?><!DOCTYPE svg PUBLIC "-//W3C//DTD SVG 1.1//EN" "http://www.w3.org/Graphics/SVG/1.1/DTD/svg11.dtd"><svg class="icon" width="128px" height="128.00px" viewBox="0 0 1024 1024" version="1.1" xmlns="http://www.w3.org/2000/svg"><path d="M366.808585 767.841352l48.228958 132.460684-48.228958 112.091944h-120.218012c0-183.017851 120.218012-244.552628 120.218012-244.552628zM777.409921 1012.39398h-121.318245l-36.80631-112.091944 36.80631-132.460684 1.162044 0.061811h0.020604c3.644781 2.526004 120.135598 64.324507 120.135597 244.490817z" fill="#FF889E" /><path d="M366.808585 767.841352h289.28103v244.550568H366.808585z" fill="#FFB5EC" /><path d="M511.450131 799.00639m-81.784017 0a81.784016 81.784016 0 1 0 163.568033 0 81.784016 81.784016 0 1 0-163.568033 0Z" fill="#FF889E" /><path d="M1009.711636 185.650994l-32.430101-16.509682 13.064757-45.187863c3.892024-13.458286-3.552064-27.586189-16.851703-31.987123l-44.656289-14.781038 4.72441-36.083123c2.264338-17.304982-12.813392-32.048934-30.019477-29.12528-114.020443 19.373586-138.336837 133.200354-138.336837 133.200354l63.457095 120.459075s107.629199 44.320451 188.088402-38.757473c12.143775-12.535243 8.511356-33.307815-7.040257-41.227847z" fill="#FFA2E7" /><path d="M86.25937 446.161127c0-234.753545 190.987332-425.740877 425.740877-425.740878s425.742938 190.987332 425.742938 425.740878z" fill="#FFB5EC" /><path d="M411.66473 32.393014c-60.908427 14.770736-116.73806 42.680402-164.313883 80.537497-16.122334-35.207469-52.318777-88.282398-126.893586-100.953626-17.206085-2.923654-32.283815 11.820298-30.019477 29.12528l4.724411 36.083123-44.65629 14.781038c-13.299638 4.400934-20.741666 18.528837-16.851702 31.987123l13.064757 45.187863-32.430101 16.509682c-15.553674 7.917972-19.184032 28.692604-7.042318 41.229907 36.589972 37.778801 78.794431 49.20969 113.944209 50.447968-22.462068 51.787203-34.93138 108.877779-34.93138 168.830197h147.987573a528.946479 528.946479 0 0 1-0.653134-26.148056c-0.00206-157.178849 69.611396-297.192821 178.070921-387.617996z" fill="#FFA2E7" /><path d="M864.83933 466.989328m-99.630874 0a99.630873 99.630873 0 1 0 199.261747 0 99.630873 99.630873 0 1 0-199.261747 0Z" fill="#FFCABD" /><path d="M864.833149 446.152885c0 195.054487-158.258479 353.150197-353.383018 352.853505S157.521116 638.211606 159.179708 443.093247c0.554237-65.165135 18.782262-126.112708 50.108008-178.289319 6.914575-11.517425 22.146833-14.770736 33.204797-7.143276l36.503436 25.173505a35.465014 35.465014 0 0 0 40.249176 0l66.199436-45.647324a35.465014 35.465014 0 0 1 40.249175 0l66.178833 45.647324a35.465014 35.465014 0 0 0 40.249175 0l66.178833-45.647324a35.49798 35.49798 0 0 1 40.269779 0l66.178833 45.647324a35.465014 35.465014 0 0 0 40.249175 0l36.509618-25.175565c11.033239-7.608918 26.261376-4.407115 33.161529 7.083525 31.842897 53.004877 50.163638 115.067107 50.163638 181.410768z" fill="#FFD8D2" /><path d="M370.890163 769.392805c-84.82099-89.37027-137.298414-212.907525-137.298415-349.381795 0-53.311871 8.039533-104.631372 22.853537-152.728467l-13.952772-9.619831c-11.057964-7.627461-26.290221-4.372089-33.204797 7.143276a350.735453 350.735453 0 0 0-41.341167 102.993384 88.46371 88.46371 0 0 0-8.787445-0.438857c-55.024032 0-99.630873 44.606841-99.630873 99.630873s44.606841 99.630873 99.630873 99.630874c7.79435 0 14.519372-0.925103 20.379043-2.61666 32.77006 91.772652 102.603976 166.359823 191.352016 205.387203z" fill="#FFCABD" /><path d="M221.592199 513.30627a78.273159 62.334197 0 1 0 156.546318 0 78.273159 62.334197 0 1 0-156.546318 0Z" fill="#FF9DB0" /><path d="M645.861978 513.30627a78.273159 62.334197 0 1 0 156.546318 0 78.273159 62.334197 0 1 0-156.546318 0Z" fill="#FF9DB0" /><path d="M345.481776 468.755058a15.452716 15.452716 0 0 1-15.452716-15.452716v-31.995364c0-8.53608 6.918696-15.452716 15.452716-15.452716s15.452716 6.916636 15.452717 15.452716v31.995364a15.452716 15.452716 0 0 1-15.452717 15.452716zM678.516658 468.755058a15.452716 15.452716 0 0 1-15.452717-15.452716v-31.995364c0-8.53608 6.918696-15.452716 15.452717-15.452716s15.452716 6.916636 15.452716 15.452716v31.995364a15.452716 15.452716 0 0 1-15.452716 15.452716zM512.000247 487.803107a73.678551 73.678551 0 0 1-55.551485-25.301248 15.452716 15.452716 0 1 1 23.300636-20.300748c8.140491 9.339622 19.894857 14.698624 32.250849 14.698623s24.110358-5.359002 32.250849-14.700684a15.452716 15.452716 0 0 1 23.300636 20.30487 73.684732 73.684732 0 0 1-55.551485 25.299187z" fill="#423E4F" /></svg>