<?xml version="1.0" standalone="no"?><!DOCTYPE svg PUBLIC "-//W3C//DTD SVG 1.1//EN" "http://www.w3.org/Graphics/SVG/1.1/DTD/svg11.dtd"><svg class="icon" width="128px" height="128.00px" viewBox="0 0 1024 1024" version="1.1" xmlns="http://www.w3.org/2000/svg"><path d="M797.897915 1024c0-166.559678-119.939863-226.392596-119.939863-226.392596h-315.647485S242.370704 857.440322 242.370704 1024z" fill="#50E1CD" /><path d="M520.13431 770.795911c-34.24734 17.218447-57.760193 52.650495-57.760193 93.596073 0 30.563412 13.099783 58.054825 33.987734 77.193529a35.038519 35.038519 0 0 0 47.544918 0c20.885891-19.138704 33.987734-46.630117 33.987734-77.193529 0-40.945577-23.512853-76.377626-57.760193-93.596073z" fill="#BC9BDD" /><path d="M520.13431 906.299751a15.452716 15.452716 0 0 1-15.452716-15.452717v-84.557263c0-8.53608 6.918696-15.452716 15.452716-15.452717s15.452716 6.916636 15.452716 15.452717v84.557263a15.452716 15.452716 0 0 1-15.452716 15.452717z" fill="#A47CD1" /><path d="M162.982889 358.847099C140.79897 407.929046 128.442978 462.365875 128.442978 519.633642h783.382664c0-57.269827-12.358052-111.704596-34.539912-160.786543l-357.15142-50.489175z" fill="#5C586F" /><path d="M284.562801 84.285296c-13.431501-29.316893-40.298624-48.214535-69.957537-52.755574-12.807211-1.961465-25.678294 3.935292-32.555783 14.914962-15.93072 25.424869-19.167549 58.114575-5.736048 87.431469 16.416966 35.83794 52.916282 56.105722 90.044008 53.612684 26.135694-26.490076 34.624386-67.365602 18.20536-103.203541z" fill="#00D1B3" /><path d="M839.743871 540.226962m-88.171139 0a88.171139 88.171139 0 1 0 176.342278 0 88.171139 88.171139 0 1 0-176.342278 0Z" fill="#FFBE9C" /><path d="M288.129288 1014.351324c0-97.302664 56.169594-180.817384 136.30532-216.74392h-62.124041S242.370704 857.440322 242.370704 1024h45.960499c-0.123622-3.201803-0.201915-6.415968-0.201915-9.648676z" fill="#00D1B3" /><path d="M698.223775 358.847099l-178.091526-50.489175-178.089464 50.489175h-98.170077c-27.549103 47.233803-43.34796 102.160998-43.34796 160.786543 0 176.515348 143.094213 319.609561 319.609562 319.609561s319.609561-143.094213 319.609561-319.609561c0-58.623485-15.798857-113.55274-43.34796-160.786543z" fill="#FFD3BC" /><path d="M789.749183 185.490286a160.053054 160.053054 0 0 0 2.204588-26.314946C791.953771 71.265867 720.687903 0 632.77637 0c-44.001095 0-83.829956 17.855099-112.64206 46.712531l-14.377207 197.193143h245.815629z" fill="#986ACB" /><path d="M225.774487 132.034189c-37.346125-19.952547-80.799163-17.006229-114.298592 3.933232a32.815388 32.815388 0 0 0-15.374422 28.777078c1.217674 39.486841 22.921529 77.247099 60.267654 97.199646 43.008 22.977159 94.117344 15.584579 128.79736-14.682141 5.882334-45.655565-16.38194-92.250656-59.392-115.227815z" fill="#50E1CD" /><path d="M330.387316 1024v-77.624145c0-8.53608 6.918696-15.452716 15.452716-15.452716s15.452716 6.916636 15.452716 15.452716V1024zM678.975871 1024v-77.624145c0-8.53608 6.918696-15.452716 15.452717-15.452716s15.452716 6.916636 15.452716 15.452716V1024z" fill="#00D1B3" /><path d="M250.519437 185.490286a160.053054 160.053054 0 0 1-2.204588-26.314946C248.314849 71.265867 319.580716 0 407.492249 0s159.1774 71.265867 159.177401 159.1774c0 2.624901-0.072113 5.23332-0.197795 7.825256l-60.714752 76.905078H259.673626z" fill="#A47CD1" /><path d="M430.597151 184.898962c-26.33967-15.238439-56.919565-23.962012-89.537159-23.962012-98.899445 0-179.074318 80.174873-179.074318 179.074318 0 6.37064 0.337899 12.662986 0.986914 18.862615l0.010301-0.024724h179.061956zM698.223775 358.847099h179.061955l0.012363 0.026784c0.649014-6.19963 0.986913-12.491976 0.986913-18.862615 0-98.901505-80.174873-179.074318-179.074318-179.074318-32.617594 0-63.197489 8.725634-89.537159 23.962012z" fill="#B08BD7" /><path d="M698.223775 358.847099c0.646954-6.191388 0.984853-12.473433 0.984853-18.835831 0-98.901505-80.174873-179.074318-179.074318-179.074318s-179.074318 80.174873-179.074318 179.074318c0 6.362398 0.337899 12.644443 0.984853 18.835831z" fill="#BC9BDD" /><path d="M268.576451 500.433127c0-50.138913 9.145948-97.945497 25.688595-141.586028h-50.390277a317.703726 317.703726 0 0 0-36.217047 93.534261 82.867767 82.867767 0 0 0-7.130913-0.325537c-48.69666 0-88.171139 39.476539-88.171139 88.171139 0 48.69666 39.474479 88.171139 88.171139 88.171139 6.669392 0 12.718616-0.766455 18.230084-2.167501 37.181296 105.105256 127.775421 184.962833 239.175083 206.938656-112.24029-60.87134-189.355525-186.99229-189.355525-332.736129z" fill="#FFBE9C" /><path d="M264.554624 557.871903a68.886149 54.857143 0 1 0 137.772298 0 68.886149 54.857143 0 1 0-137.772298 0Z" fill="#FF9DB0" /><path d="M637.939638 557.871903a68.886149 54.857143 0 1 0 137.772298 0 68.886149 54.857143 0 1 0-137.772298 0Z" fill="#FF9DB0" /><path d="M373.58693 520.517537a15.452716 15.452716 0 0 1-15.452717-15.452716v-28.16103c0-8.53608 6.918696-15.452716 15.452717-15.452717s15.452716 6.916636 15.452716 15.452717v28.16103c0 8.53608-6.916636 15.452716-15.452716 15.452716zM666.67963 520.517537a15.452716 15.452716 0 0 1-15.452717-15.452716v-28.16103c0-8.53608 6.918696-15.452716 15.452717-15.452717s15.452716 6.916636 15.452716 15.452717v28.16103a15.452716 15.452716 0 0 1-15.452716 15.452716zM520.13431 537.280644a66.706286 66.706286 0 0 1-50.285199-22.900926 15.452716 15.452716 0 0 1 23.298575-20.304869c6.813618 7.819074 16.649787 12.302423 26.986624 12.302423s20.173006-4.483348 26.986624-12.302423a15.452716 15.452716 0 1 1 23.298575 20.304869 66.708346 66.708346 0 0 1-50.285199 22.900926z" fill="#423E4F" /></svg>