<?xml version="1.0" standalone="no"?><!DOCTYPE svg PUBLIC "-//W3C//DTD SVG 1.1//EN" "http://www.w3.org/Graphics/SVG/1.1/DTD/svg11.dtd"><svg class="icon" width="128px" height="128.00px" viewBox="0 0 1024 1024" version="1.1" xmlns="http://www.w3.org/2000/svg"><path d="M690.079163 1024H333.920837l-110.425111-108.420378c34.883992-131.364571 126.699911-170.365167 126.699912-170.365167H673.800241s91.81798 39.002656 126.699912 170.365167z" fill="#5C586F" /><path d="M470.376563 745.214455v132.876877c0 13.398535 10.862229 24.260765 24.260765 24.260765h34.723284c13.398535 0 24.260765-10.862229 24.260764-24.260765v-132.876877z" fill="#FF748F" /><path d="M352.569175 745.214455l-11.77703 71.51105a41.850076 41.850076 0 0 0 61.019686 43.706463l110.188169-74.445006v-40.772507zM671.430825 745.214455l11.77703 71.51105a41.850076 41.850076 0 0 1-61.019686 43.706463L512 785.986962v-40.772507z" fill="#FF889E" /><path d="M333.920837 915.579622V1024h-123.673239c0-41.681127 5.054068-77.589119 13.248128-108.420378zM813.750342 1024H690.077103v-108.420378h110.42511c8.19406 30.83126 13.248129 66.739252 13.248129 108.420378z" fill="#FFDCCE" /><path d="M80.873336 431.126664C80.873336 193.402076 274.275412 0 512 0s431.126664 193.402076 431.126664 431.126664z" fill="#FF889E" /><path d="M223.497787 418.041304c0-182.533666 96.76903-340.279115 237.122961-414.967244C247.029183 28.554559 80.873336 210.789473 80.873336 431.128724h142.803702a511.505513 511.505513 0 0 1-0.179251-13.08742z" fill="#FF748F" /><path d="M866.868539 431.126664m-100.319034 0a100.319034 100.319034 0 1 0 200.638068 0 100.319034 100.319034 0 1 0-200.638068 0Z" fill="#FFCABD" /><path d="M850.577256 324.542068c-22.598052-71.834527-91.677875-119.173408-166.716266-112.829553-48.408209 4.091879-99.367147 22.841175-143.277586 69.91427-15.477441 16.592097-41.691429 16.592097-57.168869 0-43.910439-47.073095-94.869376-65.82239-143.275525-69.91427-74.688129-6.31295-143.751469 40.494358-166.433996 111.935356-10.320354 32.506334-16.085247 67.042125-16.542648 102.857401-2.526004 197.681449 154.772346 358.189843 352.466157 359.48375 197.075702 1.287726 357.240016-158.081288 357.240016-354.860298 0-37.140089-5.707203-72.943002-16.291283-106.586656z" fill="#FFDCCE" /><path d="M404.669553 388.965473a28.517473 28.517473 0 0 0-2.043879-2.260217c0.649014 0.91274 1.390744 1.751308 2.214889 2.497158-0.059751-0.076233-0.109199-0.160708-0.17101-0.236941zM626.457239 388.965473c-0.05563 0.067992-0.098897 0.144225-0.154527 0.214278a15.522769 15.522769 0 0 0 2.171622-2.44359c-0.704644 0.702584-1.382503 1.442254-2.017095 2.229312z"  /><path d="M349.400338 746.961642c-77.694197-83.648644-125.902551-200.104435-125.902551-328.920338 0-68.976805 13.841513-134.399485 38.607066-193.154833-41.141312 18.269231-74.051477 53.577658-88.397779 98.7614a359.380732 359.380732 0 0 0-2.5054 8.284717c-4.293795-0.733489-8.966696-1.120837-14.068153-1.120837-55.405199 0-100.319034 44.913835-100.319034 100.319034s44.913835 100.316974 100.319034 100.316974c5.045827 0 9.67134-0.383227 13.925988-1.102294 27.215324 94.442881 92.405183 172.520306 178.340829 216.616177z" fill="#FFCABD" /><path d="M221.124249 523.886229a78.398841 62.433095 0 1 0 156.797683 0 78.398841 62.433095 0 1 0-156.797683 0Z" fill="#FF9DB0" /><path d="M646.078068 523.886229a78.398841 62.433095 0 1 0 156.797683 0 78.398841 62.433095 0 1 0-156.797683 0Z" fill="#FF9DB0" /><path d="M512 498.317135a73.775388 73.775388 0 0 1-55.621537-25.332153 15.452716 15.452716 0 1 1 23.298575-20.304869 42.882318 42.882318 0 0 0 32.322962 14.731589 42.876137 42.876137 0 0 0 32.322962-14.731589 15.454777 15.454777 0 0 1 23.300636 20.304869 73.781569 73.781569 0 0 1-55.623598 25.332153z" fill="#423E4F" /><path d="M383.015147 363.171799H317.398793c-27.565586 0-48.113577 25.418688-42.334262 52.372346l3.634479 16.946479c6.106913 28.484507 31.282479 48.832644 60.41394 48.832644h22.18598c29.131461 0 54.307026-20.348137 60.413939-48.832644l3.634479-16.946479c5.781376-26.953658-14.766616-52.372346-42.332201-52.372346zM648.111646 363.171799h65.616354c27.565586 0 48.111517 25.418688 42.332201 52.372346l-3.634479 16.946479c-6.106913 28.484507-31.282479 48.832644-60.413939 48.832644h-22.18598c-29.131461 0-54.307026-20.348137-60.41394-48.832644l-3.634479-16.946479c-5.779316-26.953658 14.766616-52.372346 42.334262-52.372346z" fill="#6A647F" /><path d="M759.416531 369.536258a58.493682 58.493682 0 0 0-45.688531-21.817176h-65.616354a58.458656 58.458656 0 0 0-37.725232 13.724073c-23.966133-3.090543-55.462889-6.238777-94.824048-6.238777-39.359099 0-70.855855 3.148233-94.821988 6.238777a58.450414 58.450414 0 0 0-37.725231-13.724073H317.398793a58.491622 58.491622 0 0 0-45.690592 21.819236 58.485441 58.485441 0 0 0-11.752306 49.244716l3.634479 16.948539c7.586254 35.372298 39.346736 61.046471 75.522576 61.046471h22.18598c36.175839 0 67.938382-25.674173 75.524635-61.046471l3.634479-16.948539a58.604942 58.604942 0 0 0-0.943646-28.463903 686.047034 686.047034 0 0 1 76.047968-4.20932c30.046262 0 55.345449 1.924378 76.050028 4.20932a58.604942 58.604942 0 0 0-0.943646 28.463903l3.634479 16.948539c7.586254 35.372298 39.348797 61.046471 75.522576 61.046471h22.18598c36.175839 0 67.938382-25.674173 75.524636-61.046471l3.634478-16.948539a58.506044 58.506044 0 0 0-11.754366-49.246776zM410.238712 412.305256l-3.634479 16.948539c-4.54928 21.21967-23.603509 36.618817-45.305303 36.618817H339.11501c-21.701795 0-40.753964-15.401207-45.303243-36.618817l-3.634479-16.948539c-1.771911-8.262052 0.257545-16.769288 5.569159-23.339783s13.204861-10.340958 21.654406-10.340958h65.616354c7.425545 0 14.418414 2.915412 19.608467 8.080741 0.717006 0.712885 1.401046 1.462857 2.043879 2.260217 0.061811 0.076233 0.109199 0.160708 0.17101 0.236941a27.711871 27.711871 0 0 1 5.398149 23.102842z m330.710793 0l-3.634479 16.948539c-4.54928 21.21967-23.603509 36.618817-45.305304 36.618817H669.823742c-21.701795 0-40.753964-15.401207-45.305303-36.618817l-3.634479-16.948539a27.70569 27.70569 0 0 1 5.416692-23.125505c0.05563-0.070052 0.098897-0.144225 0.154527-0.214278 0.634592-0.784998 1.312451-1.526728 2.017095-2.231372a27.695388 27.695388 0 0 1 19.635251-8.109586h65.616354c8.449545 0 16.342793 3.768402 21.654407 10.340958a27.711871 27.711871 0 0 1 5.571219 23.339783z" fill="#423E4F" /></svg>