<?xml version="1.0" standalone="no"?><!DOCTYPE svg PUBLIC "-//W3C//DTD SVG 1.1//EN" "http://www.w3.org/Graphics/SVG/1.1/DTD/svg11.dtd"><svg class="icon" width="128px" height="128.00px" viewBox="0 0 1024 1024" version="1.1" xmlns="http://www.w3.org/2000/svg"><path d="M365.131203 806.839887l46.24895 125.923155L365.131203 1024h-111.723139c0.00206-155.619155 111.723139-217.160113 111.723139-217.160113zM770.589875 1024h-111.723139l-42.513513-89.65872 42.513513-127.499332c0.00206-0.00206 111.723139 61.538897 111.723139 217.158052z" fill="#E7886E" /><path d="M365.131203 806.839887h293.735533V1024H365.131203z" fill="#FBE29F" /><path d="M605.155155 817.747445c0 51.447243-41.705851 116.865803-93.155155 116.865802s-93.155155-65.418559-93.155155-116.865802 41.705851-93.155155 93.155155-93.155155 93.155155 41.707911 93.155155 93.155155z" fill="#FFCABD" /><path d="M854.434254 517.979171m-97.984644 0a97.984644 97.984644 0 1 0 195.969287 0 97.984644 97.984644 0 1 0-195.969287 0Z" fill="#FFCABD" /><path d="M512 497.439421m-342.434254 0a342.434254 342.434254 0 1 0 684.868508 0 342.434254 342.434254 0 1 0-684.868508 0Z" fill="#FFD3BC" /><path d="M864.647469 353.504579C962.421956 91.846825 836.354575 0 512 0S61.580105 91.846825 159.352531 353.504579z" fill="#FBE29F" /><path d="M422.932604 2.697014C165.241046 19.51163 71.101038 117.327324 159.352531 353.504579h78.462712c17.57901-147.546656 83.430245-278.033513 185.117361-350.807565z" fill="#FCCB88" /><path d="M424.362495 828.535501c-115.172185-84.14107-191.298447-229.561433-191.298447-394.886954 0-55.059058 6.622004-108.822149 19.22936-159.393738-35.545368 41.324684-61.396732 91.222535-74.026752 146.170334a88.659445 88.659445 0 0 0-8.70297-0.430616c-54.115412 0-97.984644 43.869231-97.984644 97.984644s43.869231 97.986704 97.984644 97.986704c7.590374 0 14.259767-0.892137 20.168885-2.526004 37.83237 105.068169 125.572893 186.306189 234.629924 215.09563z" fill="#FFCABD" /><path d="M882.168789 326.791984C788.286326 278.892684 655.924539 251.364185 511.99794 251.364185c-143.922479 0-276.282205 27.526439-370.166729 75.425739-34.719163 17.712934-44.730463 62.624708-20.558293 93.202543v0.00206c18.296016 23.144048 50.336708 29.893795 76.628989 16.511743 75.328901-38.339219 191.801175-61.89328 314.096033-61.89328 122.298978 0 238.771252 23.556121 314.098092 61.89534 26.292282 13.382052 58.332974 6.634366 76.62899-16.509682 24.172169-30.579895 14.16293-75.49167-20.556233-93.206664z" fill="#E7886E" /><path d="M459.516394 128.300813a66.028427 52.483606 90 1 0 104.967212 0 66.028427 52.483606 90 1 0-104.967212 0Z" fill="#E7886E" /><path d="M233.066109 563.82635a75.180555 59.870004 0 1 0 150.36111 0 75.180555 59.870004 0 1 0-150.36111 0Z" fill="#FF9DB0" /><path d="M640.572781 563.82635a75.180555 59.870004 0 1 0 150.36111 0 75.180555 59.870004 0 1 0-150.36111 0Z" fill="#FF9DB0" /><path d="M352.062326 521.644555a15.452716 15.452716 0 0 1-15.452716-15.452716v-30.732362c0-8.53608 6.918696-15.452716 15.452716-15.452716s15.452716 6.916636 15.452716 15.452716v30.732362a15.452716 15.452716 0 0 1-15.452716 15.452716zM671.939734 521.644555a15.452716 15.452716 0 0 1-15.452716-15.452716v-30.732362c0-8.53608 6.918696-15.452716 15.452716-15.452716s15.452716 6.916636 15.452717 15.452716v30.732362a15.452716 15.452716 0 0 1-15.452717 15.452716zM512 539.940571a71.381247 71.381247 0 0 1-53.81666-24.510068 15.452716 15.452716 0 0 1 23.300636-20.304869 40.481996 40.481996 0 0 0 30.518084 13.911565 40.486117 40.486117 0 0 0 30.518085-13.911565 15.452716 15.452716 0 1 1 23.298575 20.304869 71.39567 71.39567 0 0 1-53.81872 24.510068z" fill="#423E4F" /><path d="M249.635541 285.360161c-39.657851 11.280483-75.951131 25.179686-107.802269 41.429763-34.719163 17.712934-44.730463 62.624708-20.558294 93.202543 18.296016 23.144048 50.336708 29.893795 76.62899 16.511742 10.92404-5.560918 22.740217-10.798358 35.287823-15.710261 0.869473-46.574487 6.48396-92.10231 16.44375-135.433787z" fill="#E27858" /></svg>