<?xml version="1.0" standalone="no"?><!DOCTYPE svg PUBLIC "-//W3C//DTD SVG 1.1//EN" "http://www.w3.org/Graphics/SVG/1.1/DTD/svg11.dtd"><svg class="icon" width="128px" height="128.00px" viewBox="0 0 1024 1024" version="1.1" xmlns="http://www.w3.org/2000/svg"><path d="M509.32359 787.540475l56.427138 116.28066L509.32359 1024h-265.786721c0-185.135903 121.610817-267.978946 121.610817-267.978946h131.366632z" fill="#FF889E" /><path d="M509.32359 1024V787.540475l-12.809272-31.519421h162.337996S780.463131 838.864097 780.463131 1024z" fill="#FF748F" /><path d="M81.357521 430.642479C81.357521 193.185738 274.54326 0 512 0s430.642479 193.185738 430.642479 430.642479z" fill="#64D1E1" /><path d="M206.427686 424.22033c0-207.109666 104.853891-380.369642 317.475026-424.04932C519.946817 0.063871 515.98062 0 512 0 274.54326 0 81.357521 193.185738 81.357521 430.642479h125.15258c-0.030905-2.138656-0.082414-4.275252-0.082415-6.422149z" fill="#3CCADD" /><path d="M868.900056 451.711742m-100.776434 0a100.776435 100.776435 0 1 0 201.552869 0 100.776435 100.776435 0 1 0-201.552869 0Z" fill="#FFBE9C" /><path d="M822.688193 254.914189c-15.714382-27.715992-48.950085-40.473755-79.288917-30.736483-65.472129 21.009513-145.278197 33.344901-231.399276 33.344902-1.759549 0-3.498495-0.037087-5.251863-0.047389l-23.562302 10.765393-10.499606-11.618383c-71.043348-3.142052-136.707091-14.673899-192.089625-32.446583-30.309988-9.72697-63.539509 2.985465-79.247711 30.672612-29.147944 51.383372-45.921352 110.70532-46.244829 173.925472-0.306994 59.781408 14.313336 116.321867 40.315107 166.098157l18.009626 10.849868-2.486857 15.996651c63.014117 98.749038 173.196105 164.899026 298.391951 165.813827 198.334584 1.448435 359.566165-158.89101 359.566165-356.889754 0-63.891831-16.800193-123.854551-46.211863-175.72829z" fill="#FFD3BC" /><path d="M206.427686 424.22033c0-72.811139 12.982342-141.42532 39.02532-201.713577-18.157972 3.964137-34.445135 15.316732-44.104113 32.341505a354.567726 354.567726 0 0 0-37.364668 96.48882 101.308008 101.308008 0 0 0-8.884281-0.40177c-55.658624 0-100.776435 45.119871-100.776435 100.778495s45.119871 100.778495 100.776435 100.778495c7.143276 0 14.096998-0.789119 20.817899-2.206648a356.082093 356.082093 0 0 0 19.503388 44.590358l18.009626 10.849867-2.486857 15.996652c34.579058 54.187525 83.380797 98.522398 141.050334 127.684765-88.669746-79.635058-145.566648-195.796217-145.566648-325.186962z" fill="#FFBE9C" /><path d="M472.686229 256.622229a1085.567742 1085.567742 0 0 1-56.416837 99.505192c-45.56697 71.300893-119.601964 167.802076-220.850221 238.744466a358.266076 358.266076 0 0 0 15.522769 26.846519c106.7247-74.140072 184.274672-175.141087 231.774261-249.579911 29.036684-45.503099 50.227509-85.941827 64.033996-114.661215a890.226865 890.226865 0 0 1-34.063968-0.855051z" fill="#4F4C5F" /><path d="M702.338318 927.818173v25.472258l-57.529433 35.353754-57.529432-35.353754v-25.472258c0-17.888064 14.494648-32.405376 32.405376-32.405376h50.250173c17.908668 0.00206 32.403316 14.519372 32.403316 32.405376z" fill="#9AE0EB" /><path d="M587.279453 953.292491h115.058865V1024h-115.058865z" fill="#64D1E1" /><path d="M316.308861 927.818173v25.472258l57.529433 35.353754 57.529432-35.353754v-25.472258c0-17.888064-14.494648-32.405376-32.405376-32.405376h-50.250173c-17.906608 0.00206-32.403316 14.519372-32.403316 32.405376z" fill="#9AE0EB" /><path d="M316.308861 953.292491h115.058865V1024h-115.058865z" fill="#64D1E1" /><path d="M382.108588 358.985143h-114.578801c-26.277859 0-46.625996 23.003944-43.420073 49.084008l6.236717 50.724056c5.865851 47.717988 46.395235 83.57241 94.473786 83.572411s88.607936-35.852362 94.473787-83.572411l6.234656-50.724056c3.205924-26.082125-17.142213-49.084008-43.420072-49.084008z" fill="#5C586F" /><path d="M652.700072 503.550455a82.272322 65.517457 0 1 0 164.544644 0 82.272322 65.517457 0 1 0-164.544644 0Z" fill="#FF9DB0" /><path d="M687.023646 455.933425a15.452716 15.452716 0 0 1-15.452716-15.452717v-33.631292c0-8.53608 6.918696-15.452716 15.452716-15.452716s15.452716 6.916636 15.452716 15.452716v33.631292a15.452716 15.452716 0 0 1-15.452716 15.452717zM512 530.734873a76.641352 76.641352 0 0 1-57.793159-26.323187 15.452716 15.452716 0 1 1 23.300636-20.300748c8.707091 9.990696 21.279421 15.720563 34.494583 15.720563s25.787493-5.729867 34.494584-15.720563a15.452716 15.452716 0 0 1 23.300636 20.300748 76.657835 76.657835 0 0 1-57.79728 26.323187z" fill="#423E4F" /></svg>