<?xml version="1.0" standalone="no"?><!DOCTYPE svg PUBLIC "-//W3C//DTD SVG 1.1//EN" "http://www.w3.org/Graphics/SVG/1.1/DTD/svg11.dtd"><svg class="icon" width="128px" height="128.00px" viewBox="0 0 1024 1024" version="1.1" xmlns="http://www.w3.org/2000/svg"><path d="M889.314125 284.684362c23.319179 51.731573 36.307702 109.081755 36.307702 169.409159H98.380233c0-60.329465 12.990584-117.677586 36.307703-169.409159l48.329915-53.229457h644.584306z" fill="#5C586F" /><path d="M854.792757 474.330398m-96.793755 0a96.793755 96.793755 0 1 0 193.587509 0 96.793755 96.793755 0 1 0-193.587509 0Z" fill="#FFBE9C" /><path d="M617.457577 710.435541H406.542423l1.19913 156.78326L459.769819 1024h104.460362l45.138415-156.781199z" fill="#D8D8D8" /><path d="M512 454.093521m-342.792757 0a342.792757 342.792757 0 1 0 685.585514 0 342.792757 342.792757 0 1 0-685.585514 0Z" fill="#FFD3BC" /><path d="M736.161223 751.78701c13.59427-16.476716 1.759549-41.351469-19.602285-41.351469h-119.873932c-29.397247 0-53.227396 23.830149-53.227396 53.227397V1024h94.362527l93.653762-113.282833c-14.873755-45.045698-36.831034-78.96338-56.297336-102.558648 27.936451-20.36668 47.528435-40.061682 60.98466-56.371509z" fill="#FF889E" /><path d="M431.415115 787.336499c-111.683992-55.726616-188.69827-173.538125-188.69827-309.870229 0-70.604491 20.667493-136.233207 56.095421-190.853409h-85.950069a340.736515 340.736515 0 0 0-35.141537 91.339976 96.925618 96.925618 0 0 0-8.513417-0.416193c-53.458157 0-96.793755 43.335598-96.793754 96.793754s43.335598 96.793755 96.793754 96.793755c6.776531 0 13.388233-0.702584 19.771236-2.029457 38.460781 108.010366 129.567936 191.045022 242.436636 218.241803z" fill="#FFBE9C" /><path d="M406.542423 710.435541h-119.873932c-21.361835 0-33.196555 24.874753-19.602286 41.351469 13.456225 16.309827 33.048209 36.004829 60.98466 56.371509-19.468362 23.595268-41.423581 57.510889-56.297336 102.558648L365.407292 1024h94.362527V763.664998c0-29.397247-23.830149-53.229457-53.227396-53.229457z" fill="#FF889E" /><path d="M908.91229 233.684217C831.269602 94.411976 682.455823 0 512 0S192.730398 94.411976 115.08771 233.684217c-13.227525 23.72507 4.126905 52.928644 31.292781 52.928644h731.243139c27.161755 0.00206 44.516185-29.201513 31.28866-52.928644z" fill="#50E1CD" /><path d="M496.547284 286.614922v-65.367051c0-8.53608 6.918696-15.452716 15.452716-15.452716s15.452716 6.916636 15.452716 15.452716v65.367051zM367.44705 286.614922v-65.367051c0-8.53608 6.918696-15.452716 15.452717-15.452716s15.452716 6.916636 15.452716 15.452716v65.367051zM238.346817 286.614922v-65.367051c0-8.53608 6.918696-15.452716 15.452716-15.452716s15.452716 6.916636 15.452716 15.452716v65.367051zM785.653183 286.614922v-65.367051c0-8.53608-6.918696-15.452716-15.452716-15.452716s-15.452716 6.916636-15.452716 15.452716v65.367051h-98.194801v-65.367051c0-8.53608-6.918696-15.452716-15.452717-15.452716s-15.452716 6.916636-15.452716 15.452716v65.367051z" fill="#00D1B3" /><path d="M313.718986 961.47831c11.8306-104.911581 43.399469-209.423453 104.796201-249.674688a53.322173 53.322173 0 0 0-11.972764-1.368081h-119.873932c-21.361835 0-33.196555 24.872692-19.602286 41.351469 13.456225 16.309827 33.048209 36.004829 60.98466 56.369449-19.466302 23.595268-41.423581 57.51295-56.297336 102.558648z" fill="#FF748F" /><path d="M365.407292 910.717167V1024h-111.259558c0-43.568419 7.001111-81.250382 17.605795-113.282833zM749.081755 1024h-111.259558v-113.282833h93.653763c10.602624 32.032451 17.605795 69.714414 17.605795 113.282833z" fill="#FFD3BC" /><path d="M226.233948 513.176467a77.022519 61.336982 0 1 0 154.045038 0 77.022519 61.336982 0 1 0-154.045038 0Z" fill="#FF9DB0" /><path d="M643.721014 513.176467a77.022519 61.336982 0 1 0 154.045038 0 77.022519 61.336982 0 1 0-154.045038 0Z" fill="#FF9DB0" /><path d="M348.145577 469.585384a15.452716 15.452716 0 0 1-15.452716-15.452716v-31.486455c0-8.53608 6.918696-15.452716 15.452716-15.452716s15.452716 6.916636 15.452717 15.452716v31.486455a15.452716 15.452716 0 0 1-15.452717 15.452716zM675.854423 469.585384a15.452716 15.452716 0 0 1-15.452717-15.452716v-31.486455c0-8.53608 6.918696-15.452716 15.452717-15.452716s15.452716 6.916636 15.452716 15.452716v31.486455a15.452716 15.452716 0 0 1-15.452716 15.452716zM512 488.328499a72.751388 72.751388 0 0 1-54.848901-24.979831 15.452716 15.452716 0 1 1 23.298575-20.304869c7.96536 9.139767 19.464241 14.379268 31.550326 14.379267s23.584966-5.241561 31.550326-14.379267a15.452716 15.452716 0 1 1 23.298575 20.304869 72.751388 72.751388 0 0 1-54.848901 24.979831z" fill="#423E4F" /><path d="M188.988781 569.094696m-44.48322 0a44.483219 44.483219 0 1 0 88.966439 0 44.483219 44.483219 0 1 0-88.966439 0Z" fill="#FBE29F" /><path d="M211.487936 280.201014c0-107.596233 74.350229-210.923396 183.881142-265.012024-120.220072 31.976821-220.996507 112.155815-280.281368 218.495227-13.227525 23.72507 4.126905 52.928644 31.292781 52.928644h65.208402a228.827944 228.827944 0 0 1-0.100957-6.411847z" fill="#00D1B3" /><path d="M321.088901 910.717167h-49.335372c-10.604684 32.034511-17.605795 69.714414-17.605795 113.282833h54.762367c1.567936-37.15039 5.474382-75.920225 12.1788-113.282833z" fill="#FFBE9C" /></svg>