<?xml version="1.0" standalone="no"?><!DOCTYPE svg PUBLIC "-//W3C//DTD SVG 1.1//EN" "http://www.w3.org/Graphics/SVG/1.1/DTD/svg11.dtd"><svg class="icon" width="128px" height="128.00px" viewBox="0 0 1024 1024" version="1.1" xmlns="http://www.w3.org/2000/svg"><path d="M982.629988 119.367082a43.214036 43.214036 0 0 1-14.029006-33.864112l0.00206-0.026785c1.147622-25.381602-19.74239-46.271614-45.123992-45.123992l-0.026784 0.002061a43.214036 43.214036 0 0 1-33.862053-14.029007c-17.136032-18.763718-46.685746-18.763718-63.821778 0a43.214036 43.214036 0 0 1-33.864113 14.029007l-0.026785-0.002061c-25.381602-1.147622-46.271614 19.74239-45.123992 45.123992l0.002061 0.026785a43.214036 43.214036 0 0 1-14.029006 33.862052c-18.763718 17.136032-18.763718 46.685746 0 63.821779a43.214036 43.214036 0 0 1 14.029006 33.864112l-0.002061 0.026785c-1.147622 25.381602 19.74239 46.271614 45.123992 45.123992l0.026785-0.00206a43.214036 43.214036 0 0 1 33.862052 14.029006c17.136032 18.763718 46.685746 18.763718 63.821779 0a43.214036 43.214036 0 0 1 33.864113-14.029006l0.026784 0.00206c25.381602 1.147622 46.271614-19.74239 45.123992-45.123992l-0.00206-0.026785a43.214036 43.214036 0 0 1 14.029006-33.862052c18.763718-17.136032 18.763718-46.685746 0-63.821779z" fill="#FFB5EC" /><path d="M874.347654 578.838149c-59.350793 170.064354-221.385915 292.423082-411.429602 292.423082-240.201143 0-435.620314-195.437714-435.620314-435.640917 0-93.530141 29.623887-180.259026 79.98532-251.316797l395.626624 141.011187z" fill="#D8D8D8" /><path d="M462.918052 973.669473L304.294889 1024H196.708958c0-183.567968 120.580636-265.718728 120.580636-265.718728H608.548571S729.129207 840.432032 729.129207 1024h-107.587992z" fill="#B08BD7" /><path d="M462.918052 769.108475m-99.233223 0a99.233223 99.233223 0 1 0 198.466447 0 99.233223 99.233223 0 1 0-198.466447 0Z" fill="#C7856A" /><path d="M768.815903 252.841465c0-97.214068 60.908427-180.188974 146.640097-212.882801a43.201674 43.201674 0 0 1-25.867847-13.633417c-17.136032-18.763718-46.685746-18.763718-63.821779 0a43.214036 43.214036 0 0 1-33.864112 14.029007h-0.026785c-25.381602-1.149682-46.271614 19.74239-45.123992 45.121931l0.00206 0.026785a43.218157 43.218157 0 0 1-14.029006 33.864112c-18.763718 17.136032-18.763718 46.685746 0 63.821779a43.214036 43.214036 0 0 1 14.029006 33.864113l-0.00206 0.026785c-0.768515 17.01035 8.367131 31.991243 22.113867 39.686696-0.020604-1.30833-0.049449-2.6146-0.049449-3.92499z" fill="#FFA2E7" /><path d="M898.210769 418.805698l-395.301087-93.490994L223.57402 71.79332C292.301521 26.436507 374.575903 0 462.918052 0c234.563992 0 426.426978 186.368 435.292717 418.805698z" fill="#B08BD7" /><path d="M529.838616 5.152966A437.097594 437.097594 0 0 0 462.918052 0c-88.342149 0-170.616531 26.438567-239.344032 71.79332l54.714978 49.658849c79.371332-59.324008 171.992853-99.006584 251.549618-116.299203z" fill="#A47CD1" /><path d="M898.538366 435.620314c0 50.157457-8.519598 98.353449-24.190712 143.217835L107.283058 184.303517a439.574149 439.574149 0 0 1 116.290962-112.510197l674.636749 347.012378c0.224579 5.5774 0.327598 11.175404 0.327597 16.814616zM621.541215 975.006648V1024H304.294889v-48.993352c0-28.521594 23.127565-51.669763 51.669763-51.669763h213.906801c28.542197 0.00206 51.669763 23.150229 51.669762 51.669763z" fill="#FFB5EC" /><path d="M265.887678 941.39802c0-77.389264 38.359823-145.220507 95.918101-183.116748h-44.516185S196.708958 840.432032 196.708958 1024h69.526921c-1.526728-25.435171-0.348201-53.332475-0.348201-82.60198z" fill="#A47CD1" /><path d="M711.883976 687.141087c-69.969899-135.872644-306.23163-241.466205-366.942262-380.746689l0.041208 0.162769s-156.484507 5.130302-229.112274 198.701328v0.020604c32.347686 162.109296 175.419235 284.268169 347.047404 284.268169 97.084266 0 185.020523-39.08507 248.974165-102.4l-0.00412-0.010302-0.004121 0.004121z" fill="#DA9D81" /><path d="M188.277956 562.895066a77.609722 61.804684 0 1 0 155.219444 0 77.609722 61.804684 0 1 0-155.219444 0Z" fill="#FFFFFF" /><path d="M462.918052 580.237135a69.531042 69.531042 0 0 1-52.423855-23.875477 15.452716 15.452716 0 0 1 23.300636-20.304869 38.62973 38.62973 0 0 0 29.12528 13.274913 38.646213 38.646213 0 0 0 29.12734-13.274913 15.452716 15.452716 0 1 1 23.298575 20.304869 69.543404 69.543404 0 0 1-52.427976 23.875477zM311.116748 518.850704a15.452716 15.452716 0 0 1-15.452716-15.452716v-31.725457c0-8.53608 6.918696-15.452716 15.452716-15.452716s15.452716 6.916636 15.452717 15.452716v31.725457c0 8.53608-6.916636 15.452716-15.452717 15.452716z" fill="#423E4F" /><path d="M523.088869 46.564185a15.452716 15.452716 0 0 0-21.244394 5.126181l-12.784547 20.918857a15.454777 15.454777 0 0 0 26.370575 16.118214l12.784547-20.918858a15.452716 15.452716 0 0 0-5.126181-21.244394zM740.817642 179.634736a15.450656 15.450656 0 0 0-21.244395 5.126182l-12.786607 20.916796a15.454777 15.454777 0 0 0 26.370575 16.118214l12.786608-20.916797a15.452716 15.452716 0 0 0-5.126181-21.244395zM662.260153 177.487839a15.452716 15.452716 0 0 0-21.244394 5.126181c-4.048612 6.624064-12.733038 8.717392-19.357103 4.672902-6.626125-4.050672-8.721513-12.735099-4.672901-19.359163a15.454777 15.454777 0 0 0-26.370576-16.118214c-4.048612 6.624064-12.735099 8.717392-19.357103 4.672902-6.626125-4.050672-8.721513-12.735099-4.672901-19.359163a15.454777 15.454777 0 0 0-26.370575-16.118214c-12.934954 21.16404-6.240837 48.906817 14.927324 61.845892a44.703678 44.703678 0 0 0 23.38511 6.589038c2.563091 0 5.113819-0.236942 7.627461-0.667557 3.148233 10.01336 9.747573 18.988298 19.385948 24.880933a44.71398 44.71398 0 0 0 23.38511 6.589038c15.164266 0 29.988571-7.656306 38.458721-21.514301a15.446535 15.446535 0 0 0-5.124121-21.240274z" fill="#423E4F" /><path d="M93.783565 447.778511c0-91.358519 35.417626-170.756636 89.347606-236.438921L107.283058 184.305577c-50.361433 71.057771-79.98532 157.784596-79.98532 251.316797 0 162.997312 90.002801 305.358036 222.904403 380.046165C153.709199 722.280563 93.783565 591.972958 93.783565 447.778511z" fill="#CACAC8" /><path d="M295.703179 108.894262l-72.129159-37.100942A439.607115 439.607115 0 0 0 107.283058 184.303517l69.053039 35.516523c33.412893-42.690704 74.665465-79.818431 119.367082-110.925778z" fill="#FFA2E7" /></svg>