<?xml version="1.0" standalone="no"?><!DOCTYPE svg PUBLIC "-//W3C//DTD SVG 1.1//EN" "http://www.w3.org/Graphics/SVG/1.1/DTD/svg11.dtd"><svg class="icon" width="128px" height="128.00px" viewBox="0 0 1024 1024" version="1.1" xmlns="http://www.w3.org/2000/svg"><path d="M682.200338 802.370962c49.232354 35.296064 114.1214 104.10598 114.1214 221.629038H246.262728c0-117.523058 64.889046-186.332974 114.121401-221.629038z" fill="#FF889E" /><path d="M339.119131 1023.99794v-81.017562c0-8.53608 6.918696-15.452716 15.452716-15.452716s15.452716 6.916636 15.452716 15.452716v81.017562zM672.559903 1023.99794v-81.017562c0-8.53608 6.918696-15.452716 15.452717-15.452716s15.452716 6.916636 15.452716 15.452716v81.017562z" fill="#FF748F" /><path d="M682.200338 802.370962l-66.485827 118.518213c-19.140765 34.113416-55.308362 55.308362-94.420217 55.308362s-75.279453-21.194946-94.420218-55.308362l-66.485827-118.518213c30.112193-21.588475 54.395622-30.652008 54.395622-30.652008h213.022906c-0.00206 0 24.281368 9.063533 54.393561 30.652008z" fill="#D8D8D8" /><path d="M414.779751 750.981408l75.396893 134.405666c13.629296 24.295791 48.601883 24.295791 62.231179 0l75.396893-134.405666z" fill="#FFBD86" /><path d="M941.196105 619.077022c-15.156024-26.094487-32.697948-67.767372-31.294841-119.338237H132.685264c1.403107 51.572926-16.140877 93.243751-31.294841 119.338237-11.325811 19.501328-5.262165 44.503823 13.773521 56.594028 39.484781 25.078728 112.687388 58.874849 220.442269 58.874849h371.372041c107.754881 0 180.957489-33.796121 220.442269-58.874849 19.037746-12.090205 25.101392-37.094761 13.775582-56.594028z" fill="#5C586F" /><path d="M198.666302 136.939911m-136.939912 0a136.939911 136.939911 0 1 0 273.879823 0 136.939911 136.939911 0 1 0-273.879823 0Z" fill="#D8D8D8" /><path d="M242.554076 211.638342c-78.225771 0-141.639598-63.413827-141.639597-141.637537a141.979557 141.979557 0 0 1 3.828153-32.664982C78.275219 62.305352 61.72639 97.67971 61.72639 136.939911c0 75.629714 61.310197 136.939911 136.939912 136.939912 59.348732 0 109.864692-37.762318 128.869473-90.56528-23.671501 17.780926-53.093473 28.323799-84.981699 28.323799z" fill="#CACAC8" /><path d="M97.809513 441.671598c0-233.509087 189.973634-423.484781 423.484781-423.484781S944.779074 208.160451 944.779074 441.671598z" fill="#FF889E" /><path d="M174.539461 483.146688m-94.228604 0a94.228604 94.228604 0 1 0 188.457207 0 94.228604 94.228604 0 1 0-188.457207 0Z" fill="#FFBD86" /><path d="M868.045006 483.146688m-94.228604 0a94.228604 94.228604 0 1 0 188.457208 0 94.228604 94.228604 0 1 0-188.457208 0Z" fill="#FFBD86" /><path d="M175.524314 415.645103c13.293457-179.344225 163.024097-320.715976 345.767919-320.715976s332.474463 141.371751 345.76792 320.715976L521.292233 522.69534z" fill="#5C586F" /><path d="M454.569465 101.343034C303.27707 130.832998 187.157119 258.699074 175.524314 415.645103l75.085779 23.247066c7.155638-139.758487 84.769481-268.444588 203.959372-337.549135z" fill="#4F4C5F" /><path d="M868.034704 441.671598c0 191.496241-155.246229 346.742471-346.742471 346.74247S174.549763 633.167839 174.549763 441.671598c0-8.752419 0.331718-17.440966 0.974551-26.026495 1.825481-0.269907 99.917264-35.378479 198.443783-179.406037 0 0 142.657416 179.406036 493.092056 179.406037 0.642833 8.585529 0.974551 17.274076 0.974551 26.026495z" fill="#FED2A4" /><path d="M250.057915 460.037666c0-33.495308 4.079517-66.498189 11.836781-98.363751-49.6094 41.122769-85.27633 53.808419-86.370382 53.969127a348.712177 348.712177 0 0 0-0.974551 26.026495c0 156.517473 103.718632 288.794785 246.165891 331.907863-103.588829-71.305014-170.657738-185.199775-170.657739-313.539734z" fill="#FFBD86" /><path d="M246.258608 536.29373a74.129771 59.033497 0 1 0 148.259541 0 74.129771 59.033497 0 1 0-148.259541 0Z" fill="#FF9DB0" /><path d="M648.068378 536.29373a74.129771 59.033497 0 1 0 148.259542 0 74.129771 59.033497 0 1 0-148.259542 0Z" fill="#FF9DB0" /><path d="M363.590052 494.917537a15.452716 15.452716 0 0 1-15.452716-15.452716v-30.303807c0-8.53608 6.918696-15.452716 15.452716-15.452716s15.452716 6.916636 15.452717 15.452716v30.303807a15.452716 15.452716 0 0 1-15.452717 15.452716zM678.994414 494.917537a15.452716 15.452716 0 0 1-15.452716-15.452716v-30.303807c0-8.53608 6.918696-15.452716 15.452716-15.452716s15.452716 6.916636 15.452717 15.452716v30.303807a15.452716 15.452716 0 0 1-15.452717 15.452716zM521.292233 512.958068a70.588008 70.588008 0 0 1-53.225336-24.242221 15.452716 15.452716 0 0 1 23.300636-20.304869c7.555348 8.670004 18.462905 13.641658 29.926761 13.641658s22.371412-4.971654 29.928821-13.641658a15.452716 15.452716 0 1 1 23.298575 20.304869 70.604491 70.604491 0 0 1-53.229457 24.242221z" fill="#423E4F" /></svg>