<?xml version="1.0" standalone="no"?><!DOCTYPE svg PUBLIC "-//W3C//DTD SVG 1.1//EN" "http://www.w3.org/Graphics/SVG/1.1/DTD/svg11.dtd"><svg class="icon" width="128px" height="128.00px" viewBox="0 0 1024 1024" version="1.1" xmlns="http://www.w3.org/2000/svg"><path d="M696.192258 1024h86.205553c0-207.470229-130.828877-246.893199-130.828877-246.893199h-39.791775z" fill="#BC9BDD" /><path d="M535.690044 777.106801L620.105143 1024h76.087115c0-93.258173-52.603107-194.310696-84.415099-246.893199z" fill="#FFB5EC" /><path d="M327.807742 1024h-86.205553c0-207.470229 130.828877-246.893199 130.828877-246.893199h39.791775z" fill="#BC9BDD" /><path d="M488.309956 777.106801L403.894857 1024h-76.087115c0-93.258173 52.603107-194.310696 84.415099-246.893199z" fill="#FFB5EC" /><path d="M620.105143 1024H403.894857c0-93.258173 52.603107-194.310696 84.415099-246.893199h47.380088c31.811992 52.582503 84.415099 153.635026 84.415099 246.893199z" fill="#50E1CD" /><path d="M556.926197 916.321352L527.844185 788.315171l5.391968-23.735372a15.452716 15.452716 0 0 0-11.645167-18.491751 15.384724 15.384724 0 0 0-9.597167 0.920982 15.390905 15.390905 0 0 0-9.588926-0.920982 15.452716 15.452716 0 0 0-11.645167 18.491751l5.391968 23.735372-29.082012 128.006181a15.452716 15.452716 0 1 0 30.136918 6.844523l14.79134-65.103324 14.789279 65.103324a15.458897 15.458897 0 0 0 18.491751 11.647228 15.452716 15.452716 0 0 0 11.647227-18.491751z" fill="#FFFFFF" /><path d="M909.923928 468.171976c0 149.84808-178.157457 334.112451-397.923928 334.112451S114.076072 618.020056 114.076072 468.171976 292.231469 0 512 0s397.923928 318.325956 397.923928 468.171976z" fill="#B08BD7" /><path d="M268.91229 417.880596c0-190.773054 113.905062-353.378897 273.663485-415.836717A231.180877 231.180877 0 0 0 512 0C292.231469 0 114.076072 318.323895 114.076072 468.171976c0 141.697288 159.311324 314.137239 362.463035 332.480644-124.192451-76.888596-207.626817-219.508926-207.626817-382.772024z" fill="#A47CD1" /><path d="M223.650254 423.569256c23.463404-84.270873 101.524346-143.866849 191.061505-143.86685h194.576482c89.535099 0 167.598101 59.593915 191.061505 143.86685l-74.247211 68.463774H290.848966z" fill="#FFB5EC" /><path d="M268.91229 417.880596c0-28.090978 2.497159-55.561787 7.219509-82.20021-24.532732 23.710648-42.983276 53.775453-52.481545 87.89093l48.478261 49.391002a473.384692 473.384692 0 0 1-3.216225-55.081722z" fill="#FFA2E7" /><path d="M807.095372 468.174036c0 44.08969-32.36829 101.709779-82.503082 146.82759-59.655726 53.672435-137.141827 84.456306-212.59229 84.456306s-152.934503-30.783871-212.59229-84.456306c-50.134793-45.117811-82.503082-102.737899-82.503082-146.82759 0-5.983292 0.535694-12.728918 1.605022-20.173006a194.209738 194.209738 0 0 1 5.140604-24.429714c74.5233 7.814954 227.583485 11.515364 288.349746-78.3906 60.766262 89.905964 213.826447 86.205553 288.349746 78.3906a194.283911 194.283911 0 0 1 5.140604 24.429714c1.069328 7.442028 1.605022 14.187654 1.605022 20.173006z" fill="#FFDCCE" /><path d="M362.312628 530.901763a15.452716 15.452716 0 0 1-15.452717-15.452717v-28.762656c0-8.53608 6.918696-15.452716 15.452717-15.452716s15.452716 6.916636 15.452716 15.452716v28.762656a15.452716 15.452716 0 0 1-15.452716 15.452717zM661.687372 530.901763a15.452716 15.452716 0 0 1-15.452716-15.452717v-28.762656c0-8.53608 6.918696-15.452716 15.452716-15.452716s15.452716 6.916636 15.452717 15.452716v28.762656a15.452716 15.452716 0 0 1-15.452717 15.452717zM512 548.023372a67.798278 67.798278 0 0 1-51.113465-23.277972A15.452716 15.452716 0 1 1 484.185111 504.440531c7.021714 8.056016 17.160757 12.677408 27.814889 12.677409s20.793175-4.621392 27.814889-12.677409a15.452716 15.452716 0 1 1 23.298576 20.304869 67.794157 67.794157 0 0 1-51.113465 23.277972z" fill="#423E4F" /><path d="M269.019429 426.810205a684.167984 684.167984 0 0 1-45.369175-3.240949 194.283911 194.283911 0 0 0-5.140604 24.429714c-1.069328 7.444089-1.605022 14.189714-1.605022 20.173006 0 44.08969 32.36829 101.709779 82.503082 146.827589a335.080821 335.080821 0 0 0 22.284878 18.359888c-32.322962-61.353465-51.274173-131.669505-52.673159-206.549248z" fill="#FFCABD" /></svg>