<svg t="1626424142653" class="icon" viewBox="0 0 1024 1024" version="1.1" xmlns="http://www.w3.org/2000/svg" p-id="5082" width="200" height="200"><path d="M512 968H184c-26.464 0-48-21.536-48-48V624a8 8 0 0 1 16 0v296c0 17.648 14.352 32 32 32h320V448a8 8 0 0 1 16 0v512a8 8 0 0 1-8 8z" fill="#263238" p-id="5083"></path><path d="M416 632H64a8 8 0 0 1-7.024-11.824l96-176A7.984 7.984 0 0 1 160 440h352a8 8 0 0 1 7.024 11.824l-96 176A7.984 7.984 0 0 1 416 632z m-338.528-16h333.776l87.28-160H164.752l-87.28 160z" fill="#263238" p-id="5084"></path><path d="M840 968H512a8 8 0 0 1-8-8V448a8 8 0 0 1 16 0v504h320c17.648 0 32-14.352 32-32V624a8 8 0 0 1 16 0v296c0 26.464-21.536 48-48 48z" fill="#263238" p-id="5085"></path><path d="M960 632H608a7.984 7.984 0 0 1-7.024-4.176l-96-176A8 8 0 0 1 512 440h352c2.928 0 5.632 1.6 7.024 4.176l96 176A8 8 0 0 1 960 632z m-347.248-16h333.776l-87.28-160H525.472l87.28 160z" fill="#263238" p-id="5086"></path><path d="M712 112l32.144 63.2 71.856 10.144-52 49.184 12.288 69.472-64.288-32.8L647.728 304l12.272-69.472L608 185.344l71.872-10.144z" fill="#FFD740" p-id="5087"></path><path d="M776.288 312a7.84 7.84 0 0 1-3.632-0.88l-60.64-30.944-60.64 30.944a7.952 7.952 0 0 1-8.384-0.688 8.032 8.032 0 0 1-3.12-7.824l11.52-65.232-48.88-46.224a8 8 0 1 1 4.384-13.744l67.728-9.568 30.256-59.488c2.736-5.376 11.536-5.376 14.272 0l30.256 59.488 67.728 9.568a8 8 0 0 1 4.384 13.744l-48.88 46.224 11.52 65.232a7.984 7.984 0 0 1-7.872 9.392zM712 263.2c1.248 0 2.496 0.304 3.632 0.88l49.968 25.504-9.472-53.664a8 8 0 0 1 2.368-7.2l39.936-37.776-55.408-7.808a7.952 7.952 0 0 1-6.016-4.304L712 129.664l-25.008 49.168a8 8 0 0 1-6.016 4.304l-55.408 7.808 39.936 37.776a7.952 7.952 0 0 1 2.368 7.2l-9.472 53.664 49.968-25.504a8.096 8.096 0 0 1 3.632-0.88z" fill="#263238" p-id="5088"></path><path d="M312 424a8 8 0 0 1-8-8V224a8 8 0 0 1 8-8h290.304a8 8 0 0 1 0 16H320V416a8 8 0 0 1-8 8zM712 424a8 8 0 0 1-8-8v-108.88a8 8 0 0 1 16 0V416a8 8 0 0 1-8 8zM312 104h-64a8 8 0 0 1 0-16h64a8 8 0 0 1 0 16z" fill="#263238" p-id="5089"></path><path d="M280 136A8 8 0 0 1 272 128V64a8 8 0 0 1 16 0v64a8 8 0 0 1-8 8zM224 192h-64a8 8 0 0 1 0-16h64a8 8 0 0 1 0 16z" fill="#263238" p-id="5090"></path><path d="M192 224a8 8 0 0 1-8-8v-64a8 8 0 0 1 16 0v64a8 8 0 0 1-8 8z" fill="#263238" p-id="5091"></path><path d="M240 816h160v64H240z" fill="#40C4FF" p-id="5092"></path><path d="M400 888H240a8 8 0 0 1-8-8v-64a8 8 0 0 1 8-8h160a8 8 0 0 1 8 8v64a8 8 0 0 1-8 8z m-152-16h144v-48h-144v48z" fill="#263238" p-id="5093"></path><path d="M360 416l160-144" fill="#FFD740" p-id="5094"></path><path d="M360 424a8.016 8.016 0 0 1-5.36-13.952l160-144a8 8 0 0 1 10.704 11.904l-160 144a7.904 7.904 0 0 1-5.344 2.048z" fill="#263238" p-id="5095"></path><path d="M360 344l80-72" fill="#FFD740" p-id="5096"></path><path d="M360 352a8.016 8.016 0 0 1-5.36-13.952l80-72a8 8 0 0 1 10.704 11.904l-80 72A7.904 7.904 0 0 1 360 352z" fill="#263238" p-id="5097"></path></svg>